<svg id="Layer_1" data-name="Layer 1" xmlns="http://www.w3.org/2000/svg" viewBox="0 0 811.57 561.5"><title>dpay logo </title><path d="M726.89,716.39c-42.34-.32-77.87-17-107.44-46.39Q468.43,520.09,318,369.6c-13.95-13.94-29.26-25.31-49-29.11-27.55-5.29-52,2.39-73.36,19.62-24.7,19.95-39.41,45.4-38.85,78.1.36,21.15,8.75,39.3,23.18,54.22,25.05,25.88,50.85,51,76.16,76.69,3.41,3.46,4.93,1.37,7.15-.86q48.63-48.71,97.24-97.44c3.11-3.13,4.9-4,8.46-.34,14,14.46,28.28,28.64,42.63,42.75,3,2.9,3.05,4.56,0,7.61Q337.95,594.12,264.7,667.71c-4,4-6.16,4.89-10.74.27-40.46-40.92-81.44-81.32-121.87-122.28-34.17-34.62-51.82-75.8-46.27-125.12,4.3-38.2,21.12-70.8,47.65-98.12,35.45-36.52,78.11-57,130-54.15,33.82,1.86,63.12,15.46,88.37,37.55C375,326.14,396,348.8,417.78,370.51Q543,495,668,619.77c34.26,34,84.58,34.17,121.41,1,16.43-14.81,28.19-32.56,32.78-54.39,6.06-28.79-1.81-54.07-22-75C775.57,465.71,750,440.91,725,415.56c-3.37-3.41-5-2-7.62.57-32,32.08-64.08,64-95.94,96.2-4,4-6,3.75-9.79-.15q-20.32-21.07-41.35-41.45c-3.51-3.42-3.14-5.31.14-8.57q67-66.65,133.72-133.51c4.55-4.55,9.35-8.89,13.57-13.74,3-3.44,4.71-2.71,7.57.16Q776.59,366.64,828.11,418c13.5,13.52,27.8,26.34,38.84,42.09,33.62,48,38.66,99.21,13.95,152-25.73,54.95-68.73,89.67-128.77,102.07A119.78,119.78,0,0,1,726.89,716.39Z" transform="translate(-84.81 -211.81)"/><path d="M359.89,773.31c-1.23-1.11-2.28-2-3.24-2.95-14.51-14.51-28.91-29.13-43.58-43.48-3.17-3.09-2.68-4.77.18-7.61q43-42.75,85.82-85.73c20.49-20.48,41.06-40.88,61.37-61.53,3.41-3.46,5.23-3.25,8.49.09q21.07,21.6,42.68,42.68c2.73,2.68,3.09,4.19.15,7.12Q437.36,696,363.16,770.35C362.19,771.31,361.14,772.18,359.89,773.31Z" transform="translate(-84.81 -211.81)"/><path d="M670.31,261.68c-.94,1-2,2.23-3.11,3.36Q617.08,315.19,567,365.34c-15.64,15.64-31.37,31.2-46.85,47-3.07,3.13-4.82,3.53-8.09.19q-21.28-21.79-43.12-43.07c-2.92-2.87-2.59-4.46.12-7.16q74.36-74.13,148.51-148.46c2.24-2.24,3.6-3,6.24-.32,14.65,14.93,29.51,29.66,44.28,44.48C669,259,670.3,259.77,670.31,261.68Z" transform="translate(-84.81 -211.81)"/></svg>