<svg width="330" height="400" viewBox="0 0 330 400" fill="none" xmlns="http://www.w3.org/2000/svg">
<path opacity="0.0526316" d="M-76.5574 292.598C-64.4882 308.655 -25.9137 335.524 31.8305 314.546C104.011 288.323 131.927 218.813 196.349 182.771C243.897 156.17 371.661 116.239 445.128 160.363" stroke="url(#paint0_linear_543_978)" stroke-width="0.5"/>
<path opacity="0.105263" d="M-88.462 258.935C-78.1374 276.166 -42.5829 306.92 17.0378 292.093C91.5637 273.558 126.593 207.347 194.429 178.237C244.498 156.751 375.736 130.394 444.187 181.956" stroke="url(#paint1_linear_543_978)" stroke-width="0.5"/>
<path opacity="0.157895" d="M-97.4556 224.819C-88.9886 243.035 -56.8435 277.337 4.00046 268.823C80.0555 258.18 121.814 195.993 192.321 174.133C244.361 157.999 377.635 145.505 440.322 203.939" stroke="url(#paint2_linear_543_978)" stroke-width="0.5"/>
<path opacity="0.210526" d="M-103.508 190.556C-96.9912 209.556 -68.6079 247.031 -7.20722 244.923C69.5436 242.289 117.573 184.807 189.98 170.437C243.421 159.831 377.271 161.336 433.507 226.002" stroke="url(#paint3_linear_543_978)" stroke-width="0.5"/>
<path opacity="0.263158" d="M-106.617 156.453C-102.122 176.031 -77.8113 216.267 -16.5266 220.589C60.0792 225.992 113.854 173.846 187.366 167.123C241.623 162.161 374.583 177.649 423.751 247.839" stroke="url(#paint4_linear_543_978)" stroke-width="0.5"/>
<path opacity="0.315789" d="M-106.817 122.818C-104.394 142.759 -84.4219 185.316 -23.9247 196.02C51.6967 209.401 110.628 163.161 184.44 164.159C238.918 164.896 369.531 194.197 411.092 269.142" stroke="url(#paint5_linear_543_978)" stroke-width="0.5"/>
<path opacity="0.368421" d="M-104.173 89.9526C-103.847 110.037 -88.4331 154.448 -29.3863 171.418C44.4222 192.63 107.864 152.804 181.167 161.511C235.27 167.938 362.104 210.732 395.604 289.611" stroke="url(#paint6_linear_543_978)" stroke-width="0.5"/>
<path opacity="0.421053" d="M-98.7817 58.1493C-100.557 78.1578 -89.8696 123.937 -32.92 146.986C38.2669 175.796 105.524 142.82 177.515 159.142C230.651 171.189 352.316 227.006 377.388 308.955" stroke="url(#paint7_linear_543_978)" stroke-width="0.5"/>
<path opacity="0.473684" d="M-90.7676 27.6895C-94.6245 47.4029 -88.7811 94.0485 -34.5527 122.924C33.2327 159.017 103.568 133.252 173.459 157.01C225.044 174.545 340.209 242.774 356.577 326.895" stroke="url(#paint8_linear_543_978)" stroke-width="0.5"/>
<path opacity="0.526316" d="M-80.2863 -1.15996C-86.1826 18.0423 -85.247 65.0432 -34.334 99.4285C29.3073 142.41 101.951 124.138 168.975 155.072C218.445 177.903 325.847 257.796 333.333 343.166" stroke="url(#paint9_linear_543_978)" stroke-width="0.5"/>
<path opacity="0.578947" d="M-67.5209 -28.1505C-75.3921 -9.66978 -79.3746 37.1714 -32.3347 76.6902C26.4652 126.089 100.621 115.51 164.045 153.28C210.856 181.157 309.319 271.839 307.84 357.524" stroke="url(#paint10_linear_543_978)" stroke-width="0.5"/>
<path opacity="0.631579" d="M-52.6761 -53.0522C-62.436 -35.4954 -71.2929 10.6729 -28.6415 54.8922C24.6727 110.166 99.5277 107.397 158.656 151.59C202.298 184.207 290.742 284.684 280.315 369.746" stroke="url(#paint11_linear_543_978)" stroke-width="0.5"/>
<path opacity="0.684211" d="M-35.9818 -75.66C-47.5233 -59.2196 -61.1576 -14.23 -23.3621 34.2054C23.8823 94.7495 98.6168 99.8197 152.802 149.951C192.795 186.952 270.252 296.123 250.99 379.629" stroke="url(#paint12_linear_543_978)" stroke-width="0.5"/>
<path opacity="0.736842" d="M-17.69 -95.7938C-30.8868 -80.6499 -49.1491 -37.3319 -16.6235 14.7888C24.0335 79.9398 97.8286 92.794 146.477 148.315C182.383 189.293 248.004 305.963 220.12 386.998" stroke="url(#paint13_linear_543_978)" stroke-width="0.5"/>
<path opacity="0.789474" d="M1.93473 -113.299C-12.7728 -99.6171 -35.463 -58.4454 -8.56364 -3.2103C25.0605 65.8335 97.1077 86.331 139.686 146.633C171.112 191.14 224.179 314.03 187.976 391.706" stroke="url(#paint14_linear_543_978)" stroke-width="0.5"/>
<path opacity="0.842105" d="M22.6082 -128.051C6.55113 -115.982 -20.3184 -77.4073 0.659957 -19.663C26.8829 52.5172 96.3928 80.4334 132.435 144.855C159.036 192.404 198.967 320.168 154.843 393.634" stroke="url(#paint15_linear_543_978)" stroke-width="0.5"/>
<path opacity="0.894737" d="M44.0365 -139.955C26.8058 -129.631 -3.94862 -94.0763 10.8789 -34.4556C29.4133 40.0703 95.6244 75.0994 124.735 142.936C146.22 193.004 172.577 324.242 121.016 392.694" stroke="url(#paint16_linear_543_978)" stroke-width="0.5"/>
<path opacity="0.947368" d="M65.9203 -148.949C47.7048 -140.482 13.4024 -108.337 21.9166 -47.4929C32.5594 28.5621 94.7462 70.3201 116.606 140.828C132.741 192.868 145.235 326.142 86.801 388.829" stroke="url(#paint17_linear_543_978)" stroke-width="0.5"/>
<path d="M87.951 -155C68.9503 -148.483 31.4757 -120.1 33.5833 -58.6994C36.2179 18.0514 93.6992 66.0811 108.069 138.488C118.676 191.929 117.171 325.779 52.5043 382.015" stroke="url(#paint18_linear_543_978)" stroke-width="0.5"/>
<defs>
<linearGradient id="paint0_linear_543_978" x1="-72.0158" y1="306.575" x2="438.715" y2="140.628" gradientUnits="userSpaceOnUse">
<stop/>
<stop offset="1" stop-opacity="0"/>
</linearGradient>
<linearGradient id="paint1_linear_543_978" x1="-85.4064" y1="273.311" x2="439.873" y2="161.659" gradientUnits="userSpaceOnUse">
<stop/>
<stop offset="1" stop-opacity="0"/>
</linearGradient>
<linearGradient id="paint2_linear_543_978" x1="-95.9193" y1="239.436" x2="438.153" y2="183.302" gradientUnits="userSpaceOnUse">
<stop/>
<stop offset="1" stop-opacity="0"/>
</linearGradient>
<linearGradient id="paint3_linear_543_978" x1="-103.508" y1="205.252" x2="433.507" y2="205.252" gradientUnits="userSpaceOnUse">
<stop/>
<stop offset="1" stop-opacity="0"/>
</linearGradient>
<linearGradient id="paint4_linear_543_978" x1="-108.153" y1="171.069" x2="425.92" y2="227.203" gradientUnits="userSpaceOnUse">
<stop/>
<stop offset="1" stop-opacity="0"/>
</linearGradient>
<linearGradient id="paint5_linear_543_978" x1="-109.873" y1="137.194" x2="415.407" y2="248.846" gradientUnits="userSpaceOnUse">
<stop/>
<stop offset="1" stop-opacity="0"/>
</linearGradient>
<linearGradient id="paint6_linear_543_978" x1="-108.715" y1="103.93" x2="402.017" y2="269.877" gradientUnits="userSpaceOnUse">
<stop/>
<stop offset="1" stop-opacity="0"/>
</linearGradient>
<linearGradient id="paint7_linear_543_978" x1="-104.759" y1="71.5754" x2="385.828" y2="289.999" gradientUnits="userSpaceOnUse">
<stop/>
<stop offset="1" stop-opacity="0"/>
</linearGradient>
<linearGradient id="paint8_linear_543_978" x1="-98.116" y1="40.4173" x2="366.952" y2="308.925" gradientUnits="userSpaceOnUse">
<stop/>
<stop offset="1" stop-opacity="0"/>
</linearGradient>
<linearGradient id="paint9_linear_543_978" x1="-88.9249" y1="10.73" x2="345.529" y2="326.379" gradientUnits="userSpaceOnUse">
<stop/>
<stop offset="1" stop-opacity="0"/>
</linearGradient>
<linearGradient id="paint10_linear_543_978" x1="-77.3549" y1="-17.2287" x2="321.725" y2="342.104" gradientUnits="userSpaceOnUse">
<stop/>
<stop offset="1" stop-opacity="0"/>
</linearGradient>
<linearGradient id="paint11_linear_543_978" x1="-63.598" y1="-43.2181" x2="295.735" y2="355.861" gradientUnits="userSpaceOnUse">
<stop/>
<stop offset="1" stop-opacity="0"/>
</linearGradient>
<linearGradient id="paint12_linear_543_978" x1="-47.8717" y1="-67.0214" x2="267.778" y2="367.432" gradientUnits="userSpaceOnUse">
<stop/>
<stop offset="1" stop-opacity="0"/>
</linearGradient>
<linearGradient id="paint13_linear_543_978" x1="-30.4178" y1="-88.4454" x2="238.09" y2="376.623" gradientUnits="userSpaceOnUse">
<stop/>
<stop offset="1" stop-opacity="0"/>
</linearGradient>
<linearGradient id="paint14_linear_543_978" x1="-11.4914" y1="-107.321" x2="206.932" y2="383.266" gradientUnits="userSpaceOnUse">
<stop/>
<stop offset="1" stop-opacity="0"/>
</linearGradient>
<linearGradient id="paint15_linear_543_978" x1="8.63071" y1="-123.509" x2="174.577" y2="387.222" gradientUnits="userSpaceOnUse">
<stop/>
<stop offset="1" stop-opacity="0"/>
</linearGradient>
<linearGradient id="paint16_linear_543_978" x1="29.6609" y1="-136.9" x2="141.312" y2="388.38" gradientUnits="userSpaceOnUse">
<stop/>
<stop offset="1" stop-opacity="0"/>
</linearGradient>
<linearGradient id="paint17_linear_543_978" x1="51.304" y1="-147.413" x2="107.437" y2="386.66" gradientUnits="userSpaceOnUse">
<stop/>
<stop offset="1" stop-opacity="0"/>
</linearGradient>
<linearGradient id="paint18_linear_543_978" x1="73.2543" y1="-155" x2="73.2543" y2="382.015" gradientUnits="userSpaceOnUse">
<stop/>
<stop offset="1" stop-opacity="0"/>
</linearGradient>
</defs>
</svg>
