<svg width="330" height="400" viewBox="0 0 330 400" fill="none" xmlns="http://www.w3.org/2000/svg">
<path opacity="0.0344828" d="M83.2014 -33.3529C86.6619 -34.6124 90.61 -34.3354 94.9757 -32.6184C99.3433 -30.9006 104.114 -27.7467 109.2 -23.2782C119.371 -14.3414 130.764 -0.181737 142.671 18.1284C166.484 54.7451 192.322 107.913 214.539 168.951C236.755 229.99 251.137 287.328 256.432 330.684C259.08 352.364 259.454 370.534 257.407 383.918C256.383 390.61 254.756 396.093 252.515 400.216C250.274 404.338 247.428 407.088 243.967 408.347C240.507 409.607 236.559 409.33 232.193 407.613C227.825 405.895 223.055 402.741 217.969 398.273C207.797 389.336 196.404 375.176 184.497 356.866C160.685 320.249 134.846 267.082 112.63 206.043C90.4136 145.005 76.0319 87.6668 70.7364 44.3106C68.0883 22.6304 67.7141 4.46019 69.7614 -8.92387C70.7851 -15.6161 72.4123 -21.0985 74.6539 -25.2219C76.8945 -29.3434 79.7409 -32.0934 83.2014 -33.3529Z" stroke="url(#paint0_linear_543_1127)" stroke-width="0.5"/>
<path opacity="0.0689655" d="M103.693 -41.1444C107.25 -42.0976 111.159 -41.4775 115.359 -39.3865C119.56 -37.2946 124.038 -33.737 128.715 -28.8422C138.068 -19.0529 148.184 -3.95415 158.45 15.3241C178.98 53.8769 200.087 109.094 216.899 171.837C233.711 234.579 243.04 292.952 244.537 336.605C245.285 358.434 244.075 376.567 240.869 389.722C239.265 396.299 237.167 401.619 234.574 405.532C231.983 409.442 228.908 411.934 225.351 412.887C221.793 413.84 217.885 413.22 213.685 411.129C209.484 409.037 205.006 405.479 200.329 400.584C190.975 390.795 180.86 375.696 170.594 356.418C150.064 317.865 128.957 262.648 112.145 199.905C95.3332 137.163 86.0035 78.7899 84.5069 35.1371C83.7585 13.3086 84.9693 -4.82505 88.1753 -17.9797C89.7784 -24.5572 91.8772 -29.877 94.4697 -33.7893C97.061 -37.6999 100.136 -40.1913 103.693 -41.1444Z" stroke="url(#paint1_linear_543_1127)" stroke-width="0.5"/>
<path opacity="0.103448" d="M124.651 -47.2085C128.277 -47.848 132.117 -46.8896 136.118 -44.4406C140.121 -41.9904 144.272 -38.0561 148.504 -32.7723C156.97 -22.2051 165.731 -6.28212 174.277 13.8175C191.369 54.0129 207.583 110.86 218.863 174.829C230.142 238.798 234.349 297.762 232.035 341.379C230.878 363.19 228.092 381.149 223.751 393.974C221.581 400.387 219.027 405.503 216.103 409.175C213.181 412.845 209.9 415.058 206.273 415.698C202.647 416.337 198.807 415.379 194.806 412.93C190.803 410.48 186.652 406.546 182.42 401.262C173.955 390.695 165.194 374.772 156.647 354.672C139.555 314.477 123.341 257.63 112.061 193.661C100.782 129.692 96.5751 70.7277 98.8888 27.1105C100.046 5.29988 102.832 -12.6592 107.173 -25.4844C109.343 -31.8972 111.897 -37.0138 114.821 -40.6853C117.743 -44.3551 121.024 -46.569 124.651 -47.2085Z" stroke="url(#paint2_linear_543_1127)" stroke-width="0.5"/>
<path opacity="0.137931" d="M145.919 -51.5118C149.587 -51.8328 153.329 -50.5434 157.102 -47.7549C160.876 -44.9652 164.668 -40.6841 168.424 -35.0516C175.936 -23.7867 183.275 -7.1608 190.038 13.6072C203.562 55.1394 214.759 113.183 220.421 177.892C226.082 242.6 225.134 301.707 219.027 344.956C215.974 366.583 211.632 384.231 206.191 396.629C203.47 402.828 200.479 407.703 197.247 411.105C194.016 414.507 190.555 416.426 186.886 416.747C183.218 417.068 179.476 415.779 175.703 412.99C171.929 410.2 168.137 405.919 164.381 400.287C156.869 389.022 149.529 372.396 142.767 351.628C129.243 310.096 118.045 252.052 112.384 187.344C106.723 122.635 107.671 63.5287 113.778 20.2792C116.831 -1.34768 121.172 -18.9956 126.614 -31.3937C129.335 -37.5929 132.326 -42.4674 135.558 -45.8701C138.789 -49.2713 142.25 -51.1908 145.919 -51.5118Z" stroke="url(#paint3_linear_543_1127)" stroke-width="0.5"/>
<path opacity="0.172414" d="M167.34 -54.033C171.022 -54.033 174.638 -52.4224 178.153 -49.3158C181.669 -46.2077 185.074 -41.6125 188.324 -35.674C194.826 -23.7973 200.689 -6.59494 205.616 14.6835C215.468 57.2362 221.564 116.035 221.564 180.991C221.564 245.947 215.468 304.745 205.616 347.298C200.689 368.576 194.826 385.779 188.324 397.656C185.074 403.594 181.669 408.189 178.153 411.297C174.638 414.404 171.022 416.015 167.34 416.015C163.657 416.015 160.042 414.404 156.527 411.297C153.01 408.189 149.606 403.594 146.355 397.656C139.854 385.779 133.991 368.576 129.064 347.298C119.211 304.745 113.115 245.947 113.115 180.991C113.115 116.035 119.211 57.2362 129.064 14.6835C133.991 -6.59494 139.854 -23.7973 146.355 -35.674C149.606 -41.6125 153.01 -46.2077 156.527 -49.3158C160.042 -52.4224 163.657 -54.033 167.34 -54.033Z" stroke="url(#paint4_linear_543_1127)" stroke-width="0.5"/>
<path opacity="0.206897" d="M188.762 -54.7657C192.431 -54.4447 195.892 -52.5251 199.123 -49.1239C202.355 -45.7212 205.346 -40.8467 208.067 -34.6475C213.509 -22.2494 217.85 -4.60153 220.903 17.0253C227.01 60.2749 227.958 119.381 222.297 184.09C216.636 248.798 205.438 306.842 191.914 348.374C185.152 369.142 177.812 385.768 170.3 397.033C166.544 402.666 162.752 406.947 158.978 409.736C155.205 412.525 151.464 413.814 147.795 413.493C144.126 413.172 140.665 411.253 137.434 407.852C134.202 404.449 131.211 399.574 128.49 393.375C123.049 380.977 118.707 363.329 115.654 341.702C109.548 298.453 108.599 239.347 114.26 174.638C119.922 109.929 131.119 51.8855 144.643 10.3534C151.406 -10.4147 158.746 -27.0406 166.257 -38.3054C170.013 -43.938 173.805 -48.2191 177.579 -51.0088C181.352 -53.7972 185.094 -55.0866 188.762 -54.7657Z" stroke="url(#paint5_linear_543_1127)" stroke-width="0.5"/>
<path opacity="0.241379" d="M210.03 -53.7162C213.657 -53.0767 216.937 -50.8628 219.86 -47.193C222.783 -43.5215 225.338 -38.4049 227.508 -31.9921C231.848 -19.1669 234.635 -1.20781 235.792 20.6029C238.106 64.22 233.899 123.184 222.619 187.153C211.34 251.122 195.126 307.969 178.034 348.164C169.487 368.264 160.726 384.187 152.261 394.754C148.028 400.038 143.878 403.972 139.875 406.422C135.874 408.871 132.034 409.83 128.407 409.19C124.781 408.551 121.5 406.337 118.578 402.667C115.654 398.996 113.1 393.879 110.929 387.466C106.589 374.641 103.802 356.682 102.645 334.871C100.332 291.254 104.538 232.29 115.818 168.321C127.097 104.352 143.311 47.5052 160.403 7.30981C168.95 -12.7898 177.711 -28.7127 186.176 -39.28C190.409 -44.5638 194.559 -48.4981 198.562 -50.9483C202.563 -53.3973 206.403 -54.3557 210.03 -53.7162Z" stroke="url(#paint6_linear_543_1127)" stroke-width="0.5"/>
<path opacity="0.275862" d="M230.987 -50.9041C234.544 -49.951 237.619 -47.4595 240.21 -43.549C242.803 -39.6367 244.902 -34.3169 246.505 -27.7394C249.711 -14.5847 250.922 3.54893 250.173 25.3774C248.677 69.0303 239.347 127.403 222.535 190.146C205.723 252.888 184.617 308.106 164.086 346.658C153.82 365.937 143.705 381.035 134.351 390.825C129.674 395.72 125.196 399.277 120.995 401.369C116.796 403.46 112.887 404.08 109.33 403.127C105.772 402.174 102.697 399.682 100.106 395.772C97.5135 391.86 95.4147 386.54 93.8116 379.962C90.6056 366.808 89.3948 348.674 90.1432 326.845C91.6398 283.193 100.969 224.82 117.781 162.077C134.593 99.3345 155.7 44.1172 176.23 5.56443C186.496 -13.7138 196.612 -28.8126 205.966 -38.6019C210.643 -43.4966 215.12 -47.0543 219.321 -49.1462C223.521 -51.2372 227.43 -51.8572 230.987 -50.9041Z" stroke="url(#paint7_linear_543_1127)" stroke-width="0.5"/>
<path opacity="0.310345" d="M251.48 -46.366C254.941 -45.1065 257.787 -42.3565 260.028 -38.235C262.269 -34.1116 263.896 -28.6291 264.92 -21.937C266.967 -8.55289 266.593 9.61727 263.945 31.2975C258.65 74.6538 244.268 131.991 222.052 193.03C199.835 254.069 173.996 307.236 150.184 343.853C138.277 362.163 126.884 376.323 116.713 385.26C111.627 389.728 106.856 392.882 102.489 394.6C98.1229 396.317 94.1748 396.594 90.7143 395.334C87.2538 394.075 84.4074 391.325 82.1668 387.203C79.9252 383.08 78.298 377.597 77.2743 370.905C75.227 357.521 75.6012 339.351 78.2493 317.671C83.5448 274.314 97.9265 216.977 120.143 155.938C142.359 94.8997 168.198 41.7321 192.01 5.1153C203.917 -13.1948 215.31 -27.3545 225.482 -36.2913C230.568 -40.7598 235.338 -43.9137 239.706 -45.6315C244.071 -47.3485 248.02 -47.6255 251.48 -46.366Z" stroke="url(#paint8_linear_543_1127)" stroke-width="0.5"/>
<path opacity="0.344828" d="M271.361 -40.1462C274.699 -38.5899 277.295 -35.6023 279.168 -31.3012C281.041 -26.9981 282.185 -21.3947 282.621 -14.6388C283.494 -1.12722 281.538 16.9412 277.01 38.3081C267.956 81.0379 248.632 136.904 221.18 195.774C193.729 254.644 163.354 305.357 136.441 339.759C122.983 356.962 110.4 370.075 99.4882 378.091C94.0322 382.099 89.005 384.825 84.5042 386.156C80.0055 387.486 76.0483 387.418 72.7108 385.862C69.3732 384.305 66.7773 381.318 64.9045 377.016C63.0308 372.713 61.8876 367.11 61.451 360.354C60.578 346.843 62.5345 328.774 67.062 307.407C76.1161 264.677 95.4404 208.811 122.892 149.941C150.343 91.0713 180.718 40.3581 207.631 5.95602C221.089 -11.2466 233.672 -24.3595 244.584 -32.3758C250.04 -36.384 255.067 -39.1101 259.568 -40.4407C264.067 -41.7707 268.024 -41.7026 271.361 -40.1462Z" stroke="url(#paint9_linear_543_1127)" stroke-width="0.5"/>
<path opacity="0.37931" d="M290.487 -32.306C293.676 -30.4647 296.002 -27.2622 297.493 -22.8143C298.984 -18.3643 299.635 -12.6825 299.481 -5.91427C299.173 7.62198 295.649 25.4511 289.277 46.3421C276.533 88.1202 252.413 142.089 219.935 198.343C187.457 254.596 152.778 302.469 122.97 334.395C108.064 350.359 94.385 362.325 82.8162 369.36C77.0317 372.878 71.786 375.155 67.1864 376.088C62.5889 377.021 58.6527 376.608 55.4635 374.767C52.2742 372.926 49.9487 369.723 48.4578 365.275C46.9662 360.825 46.3158 355.144 46.4697 348.375C46.7776 334.839 50.3014 317.01 56.6739 296.119C69.4178 254.341 93.5376 200.372 126.016 144.118C158.493 87.8648 193.172 39.9918 222.981 8.06634C237.887 -7.89794 251.566 -19.8642 263.134 -26.8989C268.919 -30.4164 274.165 -32.6939 278.764 -33.6272C283.362 -34.5601 287.298 -34.1473 290.487 -32.306Z" stroke="url(#paint10_linear_543_1127)" stroke-width="0.5"/>
<path opacity="0.413793" d="M308.718 -22.9176C311.735 -20.8053 313.773 -17.4124 314.87 -12.8514C315.968 -8.28833 316.121 -2.57154 315.378 4.15755C313.891 17.6155 308.827 35.0696 300.658 55.3257C284.321 95.8341 255.59 147.496 218.332 200.705C181.075 253.913 142.356 298.582 109.878 327.788C93.6374 342.392 78.9679 353.121 66.83 359.12C60.761 362.12 55.3367 363.932 50.6733 364.461C46.0119 364.989 42.1267 364.235 39.1101 362.123C36.0935 360.011 34.0559 356.618 32.9583 352.057C31.8603 347.494 31.7075 341.777 32.4508 335.048C33.9373 321.59 39.0015 304.136 47.1706 283.879C63.5071 243.371 92.2389 191.709 129.496 138.501C166.753 85.2919 205.472 40.6236 237.95 11.4176C254.191 -3.18683 268.86 -13.9154 280.998 -19.9151C287.067 -22.915 292.492 -24.7267 297.155 -25.2555C301.816 -25.7841 305.702 -25.0299 308.718 -22.9176Z" stroke="url(#paint11_linear_543_1127)" stroke-width="0.5"/>
<path opacity="0.448276" d="M325.924 -12.0629C328.745 -9.6958 330.479 -6.13817 331.175 -1.49887C331.871 3.14252 331.525 8.85088 330.198 15.4896C327.544 28.7667 320.978 45.7131 311.075 65.1801C291.27 104.111 258.145 153.072 216.392 202.831C174.639 252.59 132.174 293.713 97.2743 319.978C79.8227 333.111 64.274 342.52 51.6594 347.439C45.3519 349.899 39.7904 351.231 35.0986 351.351C30.409 351.472 26.6043 350.382 23.7832 348.014C20.9622 345.647 19.228 342.09 18.5322 337.45C17.836 332.809 18.1821 327.101 19.509 320.462C22.1627 307.185 28.729 290.238 38.6324 270.771C58.4373 231.841 91.5623 182.88 133.315 133.121C175.068 83.3618 217.533 42.238 252.433 15.9738C269.885 2.84039 285.433 -6.56879 298.048 -11.4878C304.355 -13.9473 309.917 -15.2794 314.609 -15.3998C319.298 -15.5201 323.103 -14.4301 325.924 -12.0629Z" stroke="url(#paint12_linear_543_1127)" stroke-width="0.5"/>
<path opacity="0.482759" d="M341.98 0.162727C344.584 2.76673 346.002 6.46196 346.29 11.1443C346.579 15.8287 345.737 21.4851 343.837 27.9829C340.036 40.9782 332.018 57.2879 320.455 75.8177C297.333 112.874 260.066 158.761 214.136 204.692C168.205 250.623 122.317 287.889 85.2612 311.012C66.7314 322.574 50.4218 330.592 37.4265 334.393C30.9287 336.294 25.2722 337.136 20.5878 336.847C15.9055 336.558 12.2103 335.141 9.60627 332.537C7.00226 329.933 5.5848 326.237 5.29594 321.555C5.00696 316.871 5.84919 311.214 7.74966 304.716C11.5505 291.721 19.5687 275.411 31.1311 256.882C54.2537 219.825 91.5199 173.938 137.451 128.007C183.381 82.0763 229.269 44.8101 266.325 21.6876C284.855 10.1252 301.165 2.10697 314.16 -1.69387C320.658 -3.59435 326.314 -4.43657 330.999 -4.14759C335.681 -3.85874 339.376 -2.44128 341.98 0.162727Z" stroke="url(#paint13_linear_543_1127)" stroke-width="0.5"/>
<path opacity="0.517241" d="M356.771 13.6523C359.138 16.4733 360.228 20.278 360.108 24.9677C359.987 29.6594 358.655 35.221 356.196 41.5284C351.277 54.143 341.867 69.6917 328.734 87.1433C302.47 122.043 261.346 164.508 211.587 206.261C161.828 248.014 112.867 281.139 73.9365 300.944C54.4694 310.847 37.5231 317.413 24.2459 320.067C17.6072 321.394 11.8989 321.74 7.25748 321.044C2.61817 320.348 -0.939448 318.614 -3.30659 315.793C-5.67373 312.972 -6.76374 309.167 -6.64341 304.478C-6.52301 299.786 -5.19099 294.224 -2.73144 287.917C2.18756 275.302 11.5967 259.754 24.7301 242.302C50.9943 207.402 92.1181 164.937 141.877 123.184C191.636 81.4314 240.597 48.3063 279.528 28.5014C298.995 18.598 315.941 12.0318 329.218 9.37805C335.857 8.05113 341.565 7.7051 346.207 8.40125C350.846 9.0971 354.404 10.8312 356.771 13.6523Z" stroke="url(#paint14_linear_543_1127)" stroke-width="0.5"/>
<path opacity="0.551724" d="M370.192 28.2929C372.304 31.3095 373.058 35.1947 372.53 39.856C372.001 44.5195 370.189 49.9437 367.189 56.0128C361.189 68.1507 350.461 82.8202 335.857 99.0607C306.651 131.539 261.982 170.258 208.773 207.515C155.565 244.772 103.903 273.504 63.3946 289.841C43.1385 298.01 25.6843 303.074 12.2264 304.56C5.49734 305.304 -0.219451 305.151 -4.7825 304.053C-9.34351 302.955 -12.7365 300.918 -14.8487 297.901C-16.961 294.884 -17.7152 290.999 -17.1866 286.338C-16.6578 281.674 -14.8461 276.25 -11.8462 270.181C-5.84647 258.043 4.88207 243.374 19.4865 227.133C48.6925 194.655 93.3608 155.936 146.57 118.679C199.778 81.4216 251.44 52.6899 291.948 36.3533C312.204 28.1843 329.659 23.12 343.117 21.6335C349.846 20.8903 355.562 21.0431 360.125 22.1411C364.686 23.2386 368.079 25.2762 370.192 28.2929Z" stroke="url(#paint15_linear_543_1127)" stroke-width="0.5"/>
<path opacity="0.586207" d="M382.148 43.9576C383.989 47.1469 384.402 51.0831 383.469 55.6806C382.536 60.2802 380.258 65.5259 376.741 71.3104C369.706 82.8792 357.74 96.5578 341.776 111.464C309.85 141.273 261.977 175.951 205.724 208.429C149.47 240.907 95.501 265.027 53.723 277.771C32.832 284.143 15.0029 287.667 1.46659 287.975C-5.30167 288.129 -10.9834 287.479 -15.4334 285.987C-19.8814 284.496 -23.0838 282.171 -24.9251 278.981C-26.7664 275.792 -27.1792 271.856 -26.2463 267.258C-25.3131 262.659 -23.0355 257.413 -19.5181 251.629C-12.4833 240.06 -0.517049 226.381 15.4472 211.475C47.3727 181.666 95.2457 146.988 151.499 114.51C207.753 82.0317 261.722 57.9119 303.5 45.1681C324.391 38.7956 342.22 35.2718 355.756 34.9639C362.525 34.81 368.206 35.4604 372.656 36.952C377.104 38.4429 380.307 40.7684 382.148 43.9576Z" stroke="url(#paint16_linear_543_1127)" stroke-width="0.5"/>
<path opacity="0.62069" d="M392.555 60.5183C394.111 63.8559 394.18 67.8131 392.85 72.3118C391.519 76.8125 388.793 81.8398 384.785 87.2958C376.768 98.2074 363.656 110.791 346.453 124.249C312.051 151.162 261.338 181.536 202.468 208.988C143.598 236.439 87.7315 255.764 45.0017 264.818C23.6348 269.345 5.56636 271.302 -7.94522 270.429C-14.7011 269.992 -20.3046 268.849 -24.6076 266.975C-28.9087 265.102 -31.8963 262.507 -33.4527 259.169C-35.009 255.831 -35.0771 251.874 -33.7471 247.376C-32.4165 242.875 -29.6905 237.848 -25.6822 232.392C-17.6659 221.48 -4.55305 208.896 12.6496 195.439C47.0516 168.526 97.7649 138.151 156.635 110.7C215.505 83.248 271.371 63.9237 314.101 54.8695C335.468 50.342 353.536 48.3856 367.048 49.2586C373.804 49.6951 379.407 50.8383 383.71 52.7121C388.011 54.5849 390.999 57.1807 392.555 60.5183Z" stroke="url(#paint17_linear_543_1127)" stroke-width="0.5"/>
<path opacity="0.655172" d="M401.34 77.8332C402.599 81.2938 402.322 85.2418 400.605 89.6075C398.888 93.9751 395.734 98.7457 391.265 103.832C382.329 114.003 368.169 125.396 349.859 137.303C313.242 161.115 260.074 186.954 199.036 209.171C137.997 231.387 80.6595 245.768 37.3032 251.064C15.623 253.712 -2.54715 254.086 -15.9312 252.039C-22.6234 251.015 -28.1058 249.388 -32.2292 247.146C-36.3508 244.906 -39.1007 242.059 -40.3602 238.599C-41.6198 235.138 -41.3428 231.19 -39.6257 226.825C-37.9079 222.457 -34.7541 217.686 -30.2856 212.601C-21.3488 202.429 -7.18906 191.036 11.121 179.129C47.7378 155.317 100.905 129.478 161.944 107.262C222.983 85.0455 280.32 70.6637 323.677 65.3682C345.357 62.7202 363.527 62.3459 376.911 64.3933C383.603 65.4169 389.086 67.0442 393.209 69.2858C397.33 71.5264 400.08 74.3727 401.34 77.8332Z" stroke="url(#paint18_linear_543_1127)" stroke-width="0.5"/>
<path opacity="0.689655" d="M408.444 95.7609C409.397 99.3181 408.777 103.227 406.686 107.426C404.594 111.628 401.036 116.105 396.142 120.782C386.352 130.136 371.254 140.252 351.975 150.518C313.423 171.048 258.205 192.155 195.463 208.966C132.72 225.778 74.3472 235.108 30.6943 236.605C8.86585 237.353 -9.2678 236.142 -22.4225 232.936C-29 231.333 -34.3198 229.234 -38.2321 226.642C-42.1426 224.05 -44.6341 220.975 -45.5872 217.418C-46.5403 213.861 -45.9203 209.952 -43.8293 205.753C-41.7374 201.551 -38.1797 197.074 -33.285 192.397C-23.4957 183.043 -8.39689 172.928 10.8813 162.661C49.4341 142.131 104.651 121.024 167.394 104.213C230.137 87.4008 288.51 78.0711 332.162 76.5745C353.991 75.8261 372.124 77.0369 385.279 80.243C391.857 81.846 397.176 83.9449 401.089 86.5373C404.999 89.1286 407.491 92.2038 408.444 95.7609Z" stroke="url(#paint19_linear_543_1127)" stroke-width="0.5"/>
<path opacity="0.724138" d="M413.821 114.151C414.461 117.778 413.502 121.618 411.053 125.619C408.603 129.622 404.669 133.773 399.385 138.005C388.818 146.47 372.895 155.231 352.795 163.778C312.6 180.87 255.753 197.084 191.784 208.364C127.815 219.643 68.8508 223.85 25.2336 221.536C3.423 220.379 -14.5361 217.593 -27.3613 213.252C-33.7741 211.082 -38.8907 208.528 -42.5622 205.604C-46.232 202.682 -48.4459 199.401 -49.0854 195.774C-49.7249 192.148 -48.7665 188.308 -46.3175 184.307C-43.8673 180.304 -39.933 176.153 -34.6492 171.921C-24.082 163.455 -8.15901 154.694 11.9406 146.148C52.136 129.056 108.983 112.842 172.952 101.562C236.921 90.2827 295.885 86.0761 339.502 88.3897C361.313 89.5466 379.272 92.3333 392.097 96.6736C398.51 98.8439 403.626 101.398 407.298 104.322C410.968 107.244 413.182 110.525 413.821 114.151Z" stroke="url(#paint20_linear_543_1127)" stroke-width="0.5"/>
<path opacity="0.758621" d="M417.437 132.852C417.758 136.521 416.469 140.263 413.68 144.035C410.891 147.809 406.61 151.601 400.977 155.357C389.712 162.869 373.086 170.209 352.318 176.971C310.786 190.495 252.743 201.693 188.034 207.354C123.325 213.015 64.219 212.067 20.9694 205.961C-0.657403 202.907 -18.3053 198.566 -30.7034 193.124C-36.9026 190.403 -41.7771 187.413 -45.1798 184.18C-48.581 180.949 -50.5006 177.488 -50.8215 173.82C-51.1425 170.151 -49.8531 166.409 -47.0646 162.637C-44.275 158.862 -39.9938 155.071 -34.3613 151.315C-23.0965 143.803 -6.47052 136.463 14.2975 129.7C55.8297 116.177 113.873 104.979 178.582 99.3177C243.291 93.6565 302.397 94.6049 345.646 100.711C367.273 103.765 384.921 108.106 397.319 113.548C403.518 116.268 408.393 119.259 411.796 122.492C415.197 125.723 417.116 129.184 417.437 132.852Z" stroke="url(#paint21_linear_543_1127)" stroke-width="0.5"/>
<path opacity="0.793103" d="M419.27 151.709C419.27 155.392 417.66 159.007 414.553 162.522C411.445 166.039 406.85 169.443 400.911 172.694C389.034 179.195 371.832 185.058 350.554 189.985C308.001 199.838 249.202 205.934 184.246 205.934C119.291 205.934 60.4919 199.838 17.9391 189.985C-3.33925 185.058 -20.5416 179.195 -32.4183 172.694C-38.3568 169.443 -42.9521 166.039 -46.0601 162.522C-49.1667 159.007 -50.7773 155.392 -50.7773 151.709C-50.7773 148.027 -49.1667 144.411 -46.0601 140.896C-42.9521 137.38 -38.3568 133.975 -32.4183 130.725C-20.5416 124.223 -3.33925 118.36 17.9391 113.433C60.4919 103.581 119.291 97.4846 184.246 97.4846C249.202 97.4846 308.001 103.581 350.554 113.433C371.832 118.36 389.034 124.223 400.911 130.725C406.85 133.975 411.445 137.38 414.553 140.896C417.66 144.411 419.27 148.027 419.27 151.709Z" stroke="url(#paint22_linear_543_1127)" stroke-width="0.5"/>
<path opacity="0.827586" d="M419.315 170.566C418.994 174.234 417.074 177.695 413.673 180.926C410.27 184.159 405.396 187.149 399.197 189.87C386.799 195.312 369.151 199.653 347.524 202.707C304.274 208.813 245.168 209.761 180.459 204.1C115.751 198.439 57.7072 187.241 16.175 173.717C-4.59302 166.955 -21.2189 159.615 -32.4838 152.103C-38.1163 148.347 -42.3974 144.555 -45.1871 140.781C-47.9756 137.009 -49.265 133.267 -48.944 129.598C-48.6231 125.93 -46.7035 122.469 -43.3023 119.238C-39.8996 116.005 -35.0251 113.014 -28.8259 110.293C-16.4278 104.852 1.2201 100.511 22.8469 97.4571C66.0965 91.3508 125.203 90.4024 189.911 96.0637C254.62 101.725 312.664 112.923 354.196 126.446C374.964 133.209 391.59 140.549 402.855 148.061C408.487 151.817 412.768 155.608 415.558 159.383C418.346 163.155 419.636 166.897 419.315 170.566Z" stroke="url(#paint23_linear_543_1127)" stroke-width="0.5"/>
<path opacity="0.862069" d="M417.578 189.267C416.939 192.894 414.725 196.174 411.055 199.097C407.383 202.02 402.267 204.575 395.854 206.745C383.029 211.085 365.07 213.872 343.259 215.029C299.642 217.342 240.678 213.136 176.709 201.856C112.74 190.577 55.893 174.363 15.6976 157.271C-4.40204 148.724 -20.325 139.963 -30.8923 131.498C-36.176 127.265 -40.1104 123.115 -42.5605 119.112C-45.0095 115.111 -45.9679 111.271 -45.3284 107.644C-44.689 104.017 -42.475 100.737 -38.8052 97.8146C-35.1337 94.891 -30.0171 92.3365 -23.6044 90.1663C-10.7792 85.8259 7.17996 83.0393 28.9906 81.8823C72.6078 79.5687 131.572 83.7753 195.541 95.0548C259.51 106.334 316.357 122.548 356.552 139.64C376.652 148.187 392.575 156.948 403.142 165.413C408.426 169.646 412.36 173.796 414.81 177.799C417.259 181.8 418.217 185.64 417.578 189.267Z" stroke="url(#paint24_linear_543_1127)" stroke-width="0.5"/>
<path opacity="0.896552" d="M414.08 207.657C413.127 211.215 410.635 214.29 406.725 216.881C402.812 219.473 397.493 221.572 390.915 223.175C377.76 226.381 359.627 227.592 337.798 226.844C294.145 225.347 235.772 216.017 173.03 199.206C110.287 182.394 55.07 161.287 16.5172 140.757C-2.76101 130.491 -17.8598 120.375 -27.6491 111.021C-32.5438 106.344 -36.1015 101.867 -38.1934 97.6655C-40.2844 93.4661 -40.9045 89.5572 -39.9513 86.0001C-38.9982 82.443 -36.5068 79.3678 -32.5962 76.7765C-28.6839 74.184 -23.3641 72.0852 -16.7866 70.4821C-3.63192 67.2761 14.5017 66.0653 36.3302 66.8137C79.9831 68.3103 138.356 77.64 201.099 94.4518C263.841 111.264 319.058 132.37 357.611 152.901C376.889 163.167 391.988 173.282 401.778 182.636C406.672 187.313 410.23 191.791 412.322 195.992C414.413 200.191 415.033 204.1 414.08 207.657Z" stroke="url(#paint25_linear_543_1127)" stroke-width="0.5"/>
<path opacity="0.931035" d="M408.855 225.585C407.595 229.046 404.845 231.892 400.723 234.133C396.6 236.374 391.118 238.001 384.425 239.025C371.041 241.072 352.871 240.698 331.191 238.05C287.835 232.755 230.497 218.373 169.459 196.157C108.42 173.94 55.2524 148.102 18.6356 124.289C0.325484 112.382 -13.8342 100.989 -22.771 90.8176C-27.2395 85.7318 -30.3934 80.9612 -32.1112 76.5936C-33.8282 72.2279 -34.1052 68.2799 -32.8457 64.8193C-31.5862 61.3588 -28.8362 58.5125 -24.7147 56.2719C-20.5913 54.0303 -15.1088 52.403 -8.41668 51.3794C4.9674 49.332 23.1376 49.7063 44.8178 52.3543C88.1741 57.6499 145.512 72.0316 206.55 94.2478C267.589 116.464 320.756 142.303 357.373 166.115C375.683 178.022 389.843 189.415 398.78 199.587C403.248 204.673 406.402 209.443 408.12 213.811C409.837 218.176 410.114 222.125 408.855 225.585Z" stroke="url(#paint26_linear_543_1127)" stroke-width="0.5"/>
<path opacity="0.965517" d="M401.947 242.901C400.39 246.239 397.403 248.835 393.102 250.708C388.799 252.581 383.195 253.724 376.439 254.161C362.928 255.034 344.859 253.078 323.492 248.55C280.763 239.496 224.897 220.172 166.027 192.72C107.157 165.269 56.4433 134.894 22.0412 107.981C4.8386 94.5233 -8.27427 81.9397 -16.2906 71.028C-20.2988 65.5721 -23.0249 60.5448 -24.3555 56.0441C-25.6855 51.5454 -25.6173 47.5882 -24.061 44.2506C-22.5047 40.913 -19.5171 38.3172 -15.216 36.4443C-10.9129 34.5706 -5.30949 33.4274 1.44644 32.9909C14.958 32.1179 33.0264 34.0743 54.3933 38.6018C97.1231 47.656 152.989 66.9803 211.859 94.4318C270.729 121.883 321.442 152.258 355.845 179.171C373.047 192.629 386.16 205.212 394.176 216.124C398.185 221.58 400.911 226.607 402.241 231.108C403.571 235.607 403.503 239.564 401.947 242.901Z" stroke="url(#paint27_linear_543_1127)" stroke-width="0.5"/>
<path d="M393.418 259.461C391.576 262.65 388.374 264.975 383.926 266.466C379.476 267.958 373.794 268.608 367.026 268.454C353.49 268.146 335.66 264.623 314.769 258.25C272.991 245.506 219.022 221.387 162.769 188.909C106.515 156.431 58.6423 121.752 26.7168 91.9429C10.7525 77.037 -1.21371 63.3584 -8.24849 51.7896C-11.766 46.0051 -14.0435 40.7594 -14.9768 36.1598C-15.9096 31.5623 -15.4968 27.6261 -13.6555 24.4369C-11.8142 21.2476 -8.61179 18.9221 -4.1638 17.4312C0.286189 15.9396 5.96791 15.2892 12.7362 15.4431C26.2724 15.751 44.1016 19.2748 64.9926 25.6473C106.771 38.3911 160.74 62.511 216.993 94.9889C273.247 127.467 321.12 162.146 353.045 191.955C369.01 206.86 380.976 220.539 388.011 232.108C391.528 237.892 393.806 243.138 394.739 247.738C395.672 252.335 395.259 256.271 393.418 259.461Z" stroke="url(#paint28_linear_543_1127)" stroke-width="0.5"/>
<defs>
<linearGradient id="paint0_linear_543_1127" x1="112.395" y1="206.129" x2="214.774" y2="168.866" gradientUnits="userSpaceOnUse">
<stop/>
<stop offset="1" stop-color="white" stop-opacity="0"/>
</linearGradient>
<linearGradient id="paint1_linear_543_1127" x1="111.904" y1="199.97" x2="217.14" y2="171.772" gradientUnits="userSpaceOnUse">
<stop/>
<stop offset="1" stop-color="white" stop-opacity="0"/>
</linearGradient>
<linearGradient id="paint2_linear_543_1127" x1="111.815" y1="193.704" x2="219.109" y2="174.785" gradientUnits="userSpaceOnUse">
<stop/>
<stop offset="1" stop-color="white" stop-opacity="0"/>
</linearGradient>
<linearGradient id="paint3_linear_543_1127" x1="112.135" y1="187.365" x2="220.67" y2="177.87" gradientUnits="userSpaceOnUse">
<stop/>
<stop offset="1" stop-color="white" stop-opacity="0"/>
</linearGradient>
<linearGradient id="paint4_linear_543_1127" x1="112.865" y1="180.991" x2="221.814" y2="180.991" gradientUnits="userSpaceOnUse">
<stop/>
<stop offset="1" stop-color="white" stop-opacity="0"/>
</linearGradient>
<linearGradient id="paint5_linear_543_1127" x1="114.011" y1="174.616" x2="222.546" y2="184.112" gradientUnits="userSpaceOnUse">
<stop/>
<stop offset="1" stop-color="white" stop-opacity="0"/>
</linearGradient>
<linearGradient id="paint6_linear_543_1127" x1="115.572" y1="168.278" x2="222.866" y2="187.196" gradientUnits="userSpaceOnUse">
<stop/>
<stop offset="1" stop-color="white" stop-opacity="0"/>
</linearGradient>
<linearGradient id="paint7_linear_543_1127" x1="117.54" y1="162.012" x2="222.777" y2="190.21" gradientUnits="userSpaceOnUse">
<stop/>
<stop offset="1" stop-color="white" stop-opacity="0"/>
</linearGradient>
<linearGradient id="paint8_linear_543_1127" x1="119.908" y1="155.853" x2="222.287" y2="193.116" gradientUnits="userSpaceOnUse">
<stop/>
<stop offset="1" stop-color="white" stop-opacity="0"/>
</linearGradient>
<linearGradient id="paint9_linear_543_1127" x1="122.665" y1="149.836" x2="221.407" y2="195.88" gradientUnits="userSpaceOnUse">
<stop/>
<stop offset="1" stop-color="white" stop-opacity="0"/>
</linearGradient>
<linearGradient id="paint10_linear_543_1127" x1="125.799" y1="143.993" x2="220.152" y2="198.468" gradientUnits="userSpaceOnUse">
<stop/>
<stop offset="1" stop-color="white" stop-opacity="0"/>
</linearGradient>
<linearGradient id="paint11_linear_543_1127" x1="129.291" y1="138.357" x2="218.537" y2="200.848" gradientUnits="userSpaceOnUse">
<stop/>
<stop offset="1" stop-color="white" stop-opacity="0"/>
</linearGradient>
<linearGradient id="paint12_linear_543_1127" x1="133.124" y1="132.96" x2="216.584" y2="202.991" gradientUnits="userSpaceOnUse">
<stop/>
<stop offset="1" stop-color="white" stop-opacity="0"/>
</linearGradient>
<linearGradient id="paint13_linear_543_1127" x1="137.274" y1="127.83" x2="214.313" y2="204.869" gradientUnits="userSpaceOnUse">
<stop/>
<stop offset="1" stop-color="white" stop-opacity="0"/>
</linearGradient>
<linearGradient id="paint14_linear_543_1127" x1="141.716" y1="122.993" x2="211.748" y2="206.453" gradientUnits="userSpaceOnUse">
<stop/>
<stop offset="1" stop-color="white" stop-opacity="0"/>
</linearGradient>
<linearGradient id="paint15_linear_543_1127" x1="146.426" y1="118.474" x2="208.917" y2="207.72" gradientUnits="userSpaceOnUse">
<stop/>
<stop offset="1" stop-color="white" stop-opacity="0"/>
</linearGradient>
<linearGradient id="paint16_linear_543_1127" x1="151.374" y1="114.293" x2="205.849" y2="208.646" gradientUnits="userSpaceOnUse">
<stop/>
<stop offset="1" stop-color="white" stop-opacity="0"/>
</linearGradient>
<linearGradient id="paint17_linear_543_1127" x1="156.529" y1="110.473" x2="202.573" y2="209.214" gradientUnits="userSpaceOnUse">
<stop/>
<stop offset="1" stop-color="white" stop-opacity="0"/>
</linearGradient>
<linearGradient id="paint18_linear_543_1127" x1="161.858" y1="107.027" x2="199.121" y2="209.405" gradientUnits="userSpaceOnUse">
<stop/>
<stop offset="1" stop-color="white" stop-opacity="0"/>
</linearGradient>
<linearGradient id="paint19_linear_543_1127" x1="167.329" y1="103.971" x2="195.527" y2="209.208" gradientUnits="userSpaceOnUse">
<stop/>
<stop offset="1" stop-color="white" stop-opacity="0"/>
</linearGradient>
<linearGradient id="paint20_linear_543_1127" x1="172.908" y1="101.316" x2="191.827" y2="208.61" gradientUnits="userSpaceOnUse">
<stop/>
<stop offset="1" stop-color="white" stop-opacity="0"/>
</linearGradient>
<linearGradient id="paint21_linear_543_1127" x1="178.56" y1="99.0687" x2="188.056" y2="207.603" gradientUnits="userSpaceOnUse">
<stop/>
<stop offset="1" stop-color="white" stop-opacity="0"/>
</linearGradient>
<linearGradient id="paint22_linear_543_1127" x1="184.246" y1="97.2346" x2="184.246" y2="206.184" gradientUnits="userSpaceOnUse">
<stop/>
<stop offset="1" stop-color="white" stop-opacity="0"/>
</linearGradient>
<linearGradient id="paint23_linear_543_1127" x1="189.933" y1="95.8146" x2="180.438" y2="204.349" gradientUnits="userSpaceOnUse">
<stop/>
<stop offset="1" stop-color="white" stop-opacity="0"/>
</linearGradient>
<linearGradient id="paint24_linear_543_1127" x1="195.584" y1="94.8086" x2="176.665" y2="202.103" gradientUnits="userSpaceOnUse">
<stop/>
<stop offset="1" stop-color="white" stop-opacity="0"/>
</linearGradient>
<linearGradient id="paint25_linear_543_1127" x1="201.163" y1="94.2103" x2="172.965" y2="199.447" gradientUnits="userSpaceOnUse">
<stop/>
<stop offset="1" stop-color="white" stop-opacity="0"/>
</linearGradient>
<linearGradient id="paint26_linear_543_1127" x1="206.636" y1="94.0129" x2="169.373" y2="196.392" gradientUnits="userSpaceOnUse">
<stop/>
<stop offset="1" stop-color="white" stop-opacity="0"/>
</linearGradient>
<linearGradient id="paint27_linear_543_1127" x1="211.965" y1="94.2052" x2="165.921" y2="192.947" gradientUnits="userSpaceOnUse">
<stop/>
<stop offset="1" stop-color="white" stop-opacity="0"/>
</linearGradient>
<linearGradient id="paint28_linear_543_1127" x1="217.118" y1="94.7724" x2="162.644" y2="189.125" gradientUnits="userSpaceOnUse">
<stop/>
<stop offset="1" stop-color="white" stop-opacity="0"/>
</linearGradient>
</defs>
</svg>
