<svg width="1040" height="697" viewBox="0 0 1040 697" fill="none" xmlns="http://www.w3.org/2000/svg">
<path opacity="0.0344828" d="M215.595 249.939C219.418 241.739 226.748 235.388 237.239 230.82C247.733 226.25 261.375 223.471 277.793 222.411C310.628 220.289 354.51 225.044 406.374 236.033C510.099 258.012 645.693 304.916 788.568 371.54C931.442 438.163 1054.53 511.885 1138.04 577.215C1179.8 609.881 1211.65 640.441 1231.13 666.957C1240.87 680.216 1247.51 692.453 1250.75 703.429C1254 714.402 1253.84 724.099 1250.02 732.299C1246.2 740.499 1238.87 746.85 1228.37 751.419C1217.88 755.988 1204.24 758.767 1187.82 759.828C1154.99 761.949 1111.1 757.195 1059.24 746.205C955.515 724.227 819.921 677.322 677.046 610.699C534.171 544.075 411.082 470.353 327.573 405.023C285.817 372.357 253.967 341.798 234.487 315.281C224.746 302.023 218.106 289.785 214.861 278.81C211.617 267.836 211.771 258.139 215.595 249.939Z" stroke="url(#paint0_linear_510_1828)" stroke-width="0.5"/>
<path opacity="0.0689655" d="M237.406 201.377C241.93 193.541 249.785 187.853 260.635 184.217C271.487 180.58 285.319 179 301.767 179.374C334.662 180.122 377.963 188.684 428.672 204.152C530.086 235.087 661.076 293.63 797.601 372.453C934.125 451.275 1050.32 535.444 1127.82 607.804C1166.57 643.985 1195.63 677.204 1212.73 705.318C1221.28 719.375 1226.82 732.144 1229.1 743.361C1231.38 754.575 1230.38 764.222 1225.85 772.058C1221.33 779.893 1213.47 785.581 1202.63 789.218C1191.77 792.855 1177.94 794.435 1161.49 794.061C1128.6 793.312 1085.3 784.751 1034.59 769.283C933.174 738.348 802.184 679.804 665.659 600.982C529.135 522.16 412.939 437.99 335.442 365.631C296.691 329.449 267.627 296.23 250.531 268.117C241.984 254.06 236.435 241.291 234.159 230.074C231.884 218.859 232.882 209.213 237.406 201.377Z" stroke="url(#paint1_linear_510_1828)" stroke-width="0.5"/>
<path opacity="0.103448" d="M262.979 154.984C268.169 147.572 276.49 142.591 287.616 139.913C298.743 137.236 312.661 136.868 329.013 138.674C361.717 142.286 404.107 154.589 453.275 174.418C551.607 214.074 676.997 283.811 806.132 374.233C935.267 464.654 1043.68 558.63 1114.58 637.469C1150.03 676.89 1176.09 712.515 1190.67 742.012C1197.96 756.76 1202.37 769.965 1203.66 781.337C1204.95 792.707 1203.12 802.23 1197.93 809.642C1192.74 817.053 1184.42 822.035 1173.29 824.712C1162.16 827.39 1148.25 827.758 1131.89 825.951C1099.19 822.339 1056.8 810.036 1007.63 790.208C909.3 750.552 783.91 680.814 654.775 590.393C525.64 499.971 417.222 405.995 346.326 327.157C310.877 287.736 284.818 252.11 270.238 222.613C262.948 207.865 258.534 194.661 257.244 183.289C255.955 171.918 257.79 162.395 262.979 154.984Z" stroke="url(#paint2_linear_510_1828)" stroke-width="0.5"/>
<path opacity="0.137931" d="M292.101 111.085C297.916 104.153 306.64 99.916 317.956 98.2186C329.275 96.5209 343.172 97.3674 359.304 100.592C391.57 107.041 432.726 122.991 479.979 147.03C574.48 195.105 693.315 275.506 814.078 376.838C934.841 478.17 1034.65 581.238 1098.41 665.955C1130.29 708.316 1153.14 746.077 1165.1 776.732C1171.07 792.06 1174.32 805.599 1174.61 817.04C1174.91 828.479 1172.25 837.806 1166.43 844.737C1160.62 851.668 1151.89 855.906 1140.58 857.603C1129.26 859.301 1115.36 858.454 1099.23 855.23C1066.96 848.781 1025.81 832.831 978.556 808.792C884.054 760.717 765.22 680.316 644.457 578.984C523.694 477.652 423.88 374.584 360.124 289.866C328.246 247.506 305.391 209.744 293.437 179.089C287.46 163.762 284.214 150.223 283.92 138.782C283.626 127.342 286.285 118.016 292.101 111.085Z" stroke="url(#paint3_linear_510_1828)" stroke-width="0.5"/>
<path opacity="0.172414" d="M324.555 69.9774C330.953 63.5796 340.012 60.1185 351.434 59.4139C362.857 58.7092 376.627 60.7636 392.417 65.3819C423.998 74.6184 463.607 94.095 508.585 122.161C598.537 178.289 709.912 268.741 821.384 380.213C932.855 491.685 1023.31 603.059 1079.44 693.011C1107.5 737.989 1126.98 777.599 1136.21 809.179C1140.83 824.969 1142.89 838.739 1142.18 850.163C1141.48 861.584 1138.02 870.644 1131.62 877.041C1125.22 883.439 1116.16 886.9 1104.74 887.605C1093.32 888.31 1079.55 886.255 1063.76 881.637C1032.18 872.4 992.566 852.924 947.589 824.858C857.637 768.729 746.262 678.278 634.79 566.806C523.318 455.334 432.867 343.959 376.738 254.008C348.673 209.03 329.196 169.42 319.959 137.84C315.341 122.05 313.287 108.28 313.991 96.8561C314.696 85.4348 318.157 76.3752 324.555 69.9774Z" stroke="url(#paint4_linear_510_1828)" stroke-width="0.5"/>
<path opacity="0.206897" d="M360.08 31.9397C367.011 26.1238 376.338 23.4655 387.777 23.759C399.218 24.0526 412.757 27.2993 428.085 33.2763C458.74 45.23 496.501 68.0847 538.862 99.9635C623.58 163.719 726.647 263.533 827.979 384.296C929.312 505.059 1009.71 623.893 1057.79 718.395C1081.83 765.648 1097.78 806.804 1104.23 839.069C1107.45 855.202 1108.3 869.099 1106.6 880.417C1104.9 891.734 1100.66 900.457 1093.73 906.273C1086.8 912.089 1077.47 914.747 1066.04 914.454C1054.59 914.16 1041.06 910.913 1025.73 904.936C995.073 892.982 957.311 870.128 914.951 838.249C830.233 774.494 727.166 674.68 625.833 553.917C524.501 433.154 444.101 314.319 396.025 219.818C371.987 172.565 356.036 131.409 349.587 99.1435C346.363 83.0108 345.516 69.1139 347.214 57.7954C348.911 46.479 353.149 37.7555 360.08 31.9397Z" stroke="url(#paint5_linear_510_1828)" stroke-width="0.5"/>
<path opacity="0.241379" d="M398.406 -2.77468C405.817 -7.96431 415.34 -9.79964 426.71 -8.51023C438.083 -7.22063 451.287 -2.80624 466.035 4.48384C495.532 19.0639 531.158 45.1227 570.578 80.5722C649.417 151.468 743.393 259.886 833.815 389.021C924.236 518.156 993.973 643.546 1033.63 741.878C1053.46 791.045 1065.76 833.435 1069.37 866.14C1071.18 882.492 1070.81 896.41 1068.13 907.537C1065.46 918.663 1060.47 926.984 1053.06 932.173C1045.65 937.363 1036.13 939.198 1024.76 937.909C1013.39 936.619 1000.18 932.205 985.434 924.915C955.937 910.335 920.311 884.276 880.891 848.827C802.052 777.93 708.076 669.513 617.654 540.378C527.233 411.243 457.496 285.853 417.84 187.521C398.011 138.353 385.708 95.9633 382.096 63.2589C380.29 46.9066 380.657 32.9888 383.335 21.8614C386.012 10.7359 390.994 2.41496 398.406 -2.77468Z" stroke="url(#paint6_linear_510_1828)" stroke-width="0.5"/>
<path opacity="0.275862" d="M439.209 -33.9229C447.044 -38.4468 456.691 -39.4452 467.906 -37.1697C479.122 -34.8939 491.892 -29.3455 505.948 -20.7977C534.062 -3.70233 567.281 25.3623 603.462 64.1127C675.822 141.61 759.991 257.806 838.814 394.33C917.636 530.855 976.18 661.845 1007.11 763.259C1022.58 813.968 1031.14 857.269 1031.89 890.164C1032.27 906.611 1030.69 920.444 1027.05 931.296C1023.41 942.146 1017.73 950.001 1009.89 954.525C1002.05 959.049 992.407 960.047 981.193 957.772C969.976 955.496 957.207 949.947 943.15 941.4C915.036 924.304 881.817 895.239 845.636 856.489C773.276 778.992 689.107 662.796 610.284 526.272C531.462 389.747 472.918 258.757 441.983 157.343C426.515 106.634 417.954 63.3327 417.206 30.4379C416.832 13.9904 418.411 0.157664 422.049 -10.6941C425.685 -21.5439 431.373 -29.399 439.209 -33.9229Z" stroke="url(#paint7_linear_510_1828)" stroke-width="0.5"/>
<path opacity="0.310345" d="M482.19 -61.3143C490.39 -65.1381 500.087 -65.2919 511.061 -62.0477C522.036 -58.8029 534.273 -52.1627 547.532 -42.4223C574.048 -22.9418 604.608 8.90755 637.274 50.6638C702.604 134.173 776.326 257.262 842.95 400.137C909.573 543.012 956.478 678.606 978.456 782.331C989.446 834.195 994.2 878.077 992.079 910.912C991.018 927.329 988.239 940.972 983.67 951.465C979.101 961.957 972.75 969.286 964.55 973.11C956.35 976.934 946.653 977.088 935.679 973.843C924.704 970.599 912.467 963.958 899.208 954.218C872.692 934.737 842.132 902.888 809.466 861.132C744.136 777.623 670.414 654.534 603.791 511.659C537.167 368.784 490.263 233.19 468.284 129.465C457.295 77.6009 452.54 33.7187 454.661 0.883862C455.722 -15.5337 458.501 -29.1761 463.071 -39.6695C467.639 -50.1611 473.99 -57.4906 482.19 -61.3143Z" stroke="url(#paint8_linear_510_1828)" stroke-width="0.5"/>
<path opacity="0.344828" d="M527.008 -84.7697C535.51 -87.8642 545.183 -87.1723 555.832 -82.984C566.483 -78.795 578.095 -71.1135 590.454 -60.2546C615.172 -38.5371 642.839 -4.14558 671.742 40.2989C729.545 129.184 792.258 258.23 846.176 406.368C900.094 554.506 935.002 693.672 947.857 798.917C954.284 851.542 955.196 895.672 950.221 928.197C947.733 944.459 943.776 957.807 938.309 967.863C932.844 977.916 925.878 984.664 917.376 987.759C908.874 990.853 899.2 990.161 888.551 985.973C877.9 981.784 866.289 974.103 853.93 963.244C829.212 941.526 801.544 907.135 772.642 862.69C714.839 773.805 652.125 644.759 598.207 496.621C544.29 348.483 509.382 209.317 496.527 104.072C490.099 51.4472 489.187 7.31751 494.163 -25.2074C496.65 -41.47 500.608 -54.8183 506.074 -64.8736C511.54 -74.9271 518.505 -81.6751 527.008 -84.7697Z" stroke="url(#paint9_linear_510_1828)" stroke-width="0.5"/>
<path opacity="0.37931" d="M573.312 -104.146C582.052 -106.488 591.628 -104.955 601.872 -99.8548C612.117 -94.7534 623.015 -86.0892 634.381 -74.1945C657.112 -50.4053 681.676 -13.7332 706.595 33.0611C756.432 126.646 807.659 260.667 848.461 412.94C889.262 565.213 911.908 706.893 915.541 812.858C917.358 865.842 914.42 909.884 906.629 941.851C902.734 957.835 897.628 970.788 891.306 980.328C884.985 989.867 877.458 995.982 868.718 998.324C859.979 1000.67 850.402 999.133 840.159 994.033C829.913 988.932 819.015 980.267 807.65 968.373C784.919 944.583 760.354 907.911 735.435 861.117C685.599 767.532 634.371 633.511 593.57 481.238C552.768 328.965 530.122 187.286 526.489 81.3205C524.672 28.3358 527.61 -15.7054 535.401 -47.673C539.297 -63.6569 544.403 -76.6094 550.725 -86.15C557.045 -95.6889 564.573 -101.804 573.312 -104.146Z" stroke="url(#paint10_linear_510_1828)" stroke-width="0.5"/>
<path opacity="0.413793" d="M620.732 -119.324C629.642 -120.895 639.048 -118.534 648.808 -112.56C658.57 -106.585 668.672 -97.0042 678.957 -84.1642C699.528 -58.4844 720.803 -19.811 741.549 28.9772C783.039 126.55 822.391 264.525 849.766 419.775C877.141 575.025 887.353 718.139 881.736 824.017C878.928 876.959 872.163 920.576 861.616 951.743C856.342 967.327 850.126 979.785 842.997 988.738C835.869 997.69 827.837 1003.13 818.927 1004.7C810.016 1006.27 800.61 1003.91 790.85 997.933C781.088 991.958 770.987 982.377 760.701 969.537C740.13 943.857 718.855 905.184 698.109 856.396C656.619 758.823 617.267 620.848 589.892 465.598C562.518 310.348 552.306 167.234 557.922 61.3556C560.73 8.41424 567.495 -35.2034 578.043 -66.3703C583.317 -81.9538 589.532 -94.4121 596.662 -103.365C603.79 -112.317 611.821 -117.753 620.732 -119.324Z" stroke="url(#paint11_linear_510_1828)" stroke-width="0.5"/>
<path opacity="0.448276" d="M668.909 -130.225C677.923 -131.014 687.087 -127.842 696.29 -121.04C705.493 -114.237 714.721 -103.812 723.849 -90.1243C742.104 -62.7493 759.927 -22.3688 776.342 28.0418C809.17 128.859 836.347 269.739 850.087 426.784C863.826 583.829 861.526 727.288 846.703 832.275C839.291 884.77 828.751 927.632 815.527 957.761C808.915 972.825 801.637 984.694 793.755 992.992C785.874 1001.29 777.399 1006 768.385 1006.79C759.372 1007.58 750.207 1004.41 741.005 997.607C731.801 990.804 722.573 980.379 713.446 966.692C695.191 939.317 677.368 898.936 660.953 848.526C628.125 747.708 600.948 606.828 587.208 449.783C573.468 292.738 575.769 149.279 590.592 44.2928C598.003 -8.20233 608.544 -51.0644 621.768 -81.1934C628.38 -96.258 635.657 -108.127 643.54 -116.425C651.421 -124.721 659.896 -129.437 668.909 -130.225Z" stroke="url(#paint12_linear_510_1828)" stroke-width="0.5"/>
<path opacity="0.482759" d="M717.469 -136.798C726.517 -136.798 735.37 -132.839 743.944 -125.261C752.52 -117.682 760.805 -106.492 768.704 -92.0613C784.504 -63.1995 798.74 -21.4192 810.699 30.2301C834.615 133.525 849.41 276.238 849.41 433.883C849.41 591.527 834.615 734.24 810.699 837.535C798.74 889.184 784.504 930.964 768.704 959.826C760.805 974.257 752.52 985.447 743.944 993.026C735.37 1000.6 726.517 1004.56 717.469 1004.56C708.421 1004.56 699.567 1000.6 690.993 993.026C682.417 985.447 674.133 974.257 666.233 959.826C650.434 930.964 636.198 889.184 624.239 837.535C600.322 734.24 585.527 591.527 585.527 433.883C585.527 276.238 600.322 133.525 624.239 30.2301C636.198 -21.4192 650.434 -63.1995 666.233 -92.0613C674.133 -106.492 682.417 -117.682 690.993 -125.261C699.567 -132.839 708.421 -136.798 717.469 -136.798Z" stroke="url(#paint13_linear_510_1828)" stroke-width="0.5"/>
<path opacity="0.517241" d="M766.026 -139.03C775.04 -138.242 783.514 -133.526 791.396 -125.23C799.278 -116.932 806.556 -105.063 813.168 -89.9985C826.392 -59.8695 836.932 -17.0075 844.344 35.4876C859.167 140.474 861.467 283.933 847.728 440.978C833.988 598.023 806.811 738.903 773.983 839.72C757.568 890.131 739.744 930.511 721.49 957.886C712.362 971.574 703.134 981.999 693.93 988.802C684.728 995.604 675.563 998.776 666.55 997.987C657.537 997.199 649.062 992.483 641.181 984.187C633.298 975.889 626.02 964.02 619.408 948.955C606.185 918.826 595.644 875.964 588.232 823.469C573.41 718.483 571.109 575.024 584.849 417.979C598.588 260.934 625.765 120.054 658.594 19.2365C675.008 -31.174 692.832 -71.5545 711.087 -98.9295C720.214 -112.617 729.442 -123.042 738.646 -129.845C747.848 -136.647 757.013 -139.819 766.026 -139.03Z" stroke="url(#paint14_linear_510_1828)" stroke-width="0.5"/>
<path opacity="0.551724" d="M814.213 -136.935C823.123 -135.364 831.155 -129.928 838.283 -120.977C845.412 -112.023 851.628 -99.565 856.902 -83.9815C867.449 -52.8146 874.214 -9.19696 877.022 43.7444C882.639 149.623 872.427 292.737 845.052 447.987C817.677 603.237 778.325 741.212 736.835 838.784C716.089 887.573 694.814 926.246 674.243 951.926C663.958 964.766 653.856 974.347 644.094 980.322C634.334 986.296 624.928 988.657 616.018 987.086C607.107 985.515 599.076 980.079 591.948 971.127C584.818 962.174 578.603 949.715 573.329 934.132C562.781 902.965 556.016 859.347 553.208 806.406C547.592 700.528 557.804 557.414 585.178 402.164C612.553 246.914 651.905 108.938 693.395 11.366C714.141 -37.4222 735.416 -76.0956 755.987 -101.775C766.273 -114.615 776.374 -124.197 786.136 -130.171C795.896 -136.145 805.302 -138.507 814.213 -136.935Z" stroke="url(#paint15_linear_510_1828)" stroke-width="0.5"/>
<path opacity="0.586207" d="M861.636 -130.563C870.376 -128.221 877.903 -122.106 884.224 -112.567C890.546 -103.026 895.652 -90.0737 899.547 -74.0897C907.338 -42.1222 910.276 1.91905 908.459 54.9037C904.826 160.869 882.181 302.548 841.379 454.821C800.578 607.095 749.35 741.115 699.514 834.7C674.595 881.495 650.03 918.167 627.299 941.956C615.933 953.851 605.035 962.515 594.79 967.616C584.546 972.717 574.97 974.249 566.23 971.907C557.491 969.566 549.964 963.45 543.643 953.911C537.321 944.371 532.215 931.418 528.319 915.434C520.528 883.467 517.591 839.426 519.407 786.441C523.04 680.476 545.686 538.797 586.488 386.523C627.289 234.25 678.517 100.229 728.353 6.64434C753.272 -40.15 777.837 -76.8221 800.568 -100.611C811.933 -112.506 822.832 -121.17 833.077 -126.272C843.32 -131.372 852.897 -132.904 861.636 -130.563Z" stroke="url(#paint16_linear_510_1828)" stroke-width="0.5"/>
<path opacity="0.62069" d="M907.937 -119.994C916.439 -116.899 923.405 -110.151 928.87 -100.098C934.337 -90.0425 938.294 -76.6942 940.782 -60.4316C945.757 -27.9066 944.845 16.2231 938.417 68.8477C925.563 174.093 890.655 313.259 836.737 461.397C782.819 609.535 720.106 738.581 662.303 827.466C633.4 871.911 605.733 906.302 581.015 928.02C568.656 938.878 557.044 946.56 546.393 950.749C535.744 954.937 526.071 955.629 517.569 952.535C509.066 949.44 502.101 942.692 496.635 932.639C491.169 922.583 487.211 909.235 484.724 892.972C479.748 860.447 480.66 816.318 487.088 763.693C499.943 658.448 534.851 519.282 588.768 371.144C642.686 223.006 705.399 93.96 763.203 5.07472C792.105 -39.3697 819.773 -73.7613 844.49 -95.4788C856.85 -106.338 868.461 -114.019 879.112 -118.208C889.761 -122.396 899.435 -123.088 907.937 -119.994Z" stroke="url(#paint17_linear_510_1828)" stroke-width="0.5"/>
<path opacity="0.655172" d="M952.752 -105.346C960.952 -101.522 967.303 -94.1927 971.872 -83.7011C976.441 -73.2077 979.22 -59.5653 980.281 -43.1477C982.403 -10.3129 977.648 33.5693 966.658 85.4335C944.68 189.158 897.775 324.752 831.152 467.627C764.528 610.502 690.806 733.591 625.476 817.1C592.81 858.856 562.251 890.706 535.734 910.186C522.476 919.927 510.238 926.567 499.263 929.812C488.289 933.056 478.592 932.902 470.392 929.078C462.192 925.254 455.841 917.925 451.273 907.433C446.704 896.94 443.924 883.298 442.864 866.88C440.742 834.045 445.497 790.163 456.486 738.299C478.465 634.574 525.369 498.98 591.993 356.105C658.616 213.23 732.338 90.1414 797.668 6.63218C830.334 -35.1241 860.894 -66.9734 887.411 -86.4539C900.669 -96.1943 912.906 -102.835 923.882 -106.079C934.855 -109.324 944.552 -109.17 952.752 -105.346Z" stroke="url(#paint18_linear_510_1828)" stroke-width="0.5"/>
<path opacity="0.689655" d="M995.73 -86.7601C1003.57 -82.2361 1009.25 -74.381 1012.89 -63.5312C1016.53 -52.6795 1018.11 -38.8468 1017.73 -22.3993C1016.98 10.4955 1008.42 53.7964 992.955 104.505C962.02 205.92 903.477 336.91 824.654 473.434C745.832 609.959 661.663 726.154 589.303 803.652C553.122 842.402 519.903 871.467 491.789 888.562C477.732 897.11 464.963 902.659 453.746 904.934C442.532 907.21 432.885 906.212 425.05 901.688C417.214 897.164 411.526 889.309 407.889 878.459C404.252 867.607 402.672 853.774 403.046 837.327C403.795 804.432 412.356 761.131 427.824 710.422C458.759 609.008 517.303 478.018 596.125 341.493C674.948 204.968 759.117 88.7731 831.476 11.2755C867.658 -27.4748 900.877 -56.5395 928.99 -73.6348C943.047 -82.1826 955.817 -87.731 967.033 -90.0069C978.248 -92.2823 987.894 -91.284 995.73 -86.7601Z" stroke="url(#paint19_linear_510_1828)" stroke-width="0.5"/>
<path opacity="0.724138" d="M1036.54 -64.4138C1043.95 -59.2242 1048.94 -50.9033 1051.61 -39.7778C1054.29 -28.6503 1054.66 -14.7326 1052.85 1.61976C1049.24 34.3241 1036.94 76.7141 1017.11 125.882C977.453 224.214 907.716 349.604 817.294 478.739C726.873 607.874 632.897 716.291 554.058 787.187C514.637 822.637 479.012 848.696 449.515 863.276C434.767 870.566 421.562 874.98 410.19 876.27C398.82 877.559 389.297 875.724 381.885 870.534C374.474 865.345 369.492 857.024 366.815 845.898C364.137 834.771 363.769 820.853 365.575 804.501C369.188 771.796 381.49 729.406 401.319 680.238C440.975 581.906 510.713 456.517 601.134 327.382C691.555 198.247 785.532 89.8292 864.37 18.9331C903.791 -16.5164 939.417 -42.5752 968.913 -57.1553C983.662 -64.4454 996.866 -68.8598 1008.24 -70.1494C1019.61 -71.4388 1029.13 -69.6035 1036.54 -64.4138Z" stroke="url(#paint20_linear_510_1828)" stroke-width="0.5"/>
<path opacity="0.758621" d="M1074.86 -38.5107C1081.79 -32.6948 1086.03 -23.9713 1087.73 -12.6549C1089.43 -1.33638 1088.58 12.5605 1085.36 28.6932C1078.91 60.9582 1062.96 102.115 1038.92 149.367C990.842 243.869 910.442 362.703 809.11 483.466C707.778 604.229 604.71 704.044 519.992 767.799C477.632 799.677 439.87 822.532 409.215 834.486C393.888 840.463 380.349 843.71 368.907 844.003C357.468 844.297 348.141 841.638 341.21 835.823C334.279 830.007 330.042 821.283 328.344 809.967C326.647 798.648 327.493 784.751 330.718 768.619C337.167 736.354 353.117 695.197 377.156 647.945C425.231 553.443 505.632 434.609 606.964 313.846C708.296 193.083 811.364 93.2683 896.081 29.5132C938.442 -2.3656 976.203 -25.2203 1006.86 -37.1741C1022.19 -43.151 1035.72 -46.3978 1047.17 -46.6913C1058.61 -46.9848 1067.93 -44.3265 1074.86 -38.5107Z" stroke="url(#paint21_linear_510_1828)" stroke-width="0.5"/>
<path opacity="0.793103" d="M1110.39 -9.27792C1116.78 -2.88012 1120.25 6.17947 1120.95 17.6008C1121.65 29.0242 1119.6 42.7944 1114.98 58.5847C1105.75 90.1649 1086.27 129.775 1058.2 174.752C1002.07 264.704 911.623 376.079 800.151 487.551C688.679 599.023 577.304 689.474 487.352 745.603C442.375 773.668 402.765 793.145 371.185 802.382C355.394 807 341.624 809.054 330.201 808.35C318.78 807.645 309.72 804.184 303.322 797.786C296.924 791.388 293.463 782.329 292.759 770.907C292.054 759.484 294.108 745.714 298.727 729.924C307.963 698.343 327.44 658.734 355.505 613.756C411.634 523.804 502.086 412.429 613.557 300.957C725.029 189.486 836.404 99.0341 926.356 42.9053C971.334 14.8397 1010.94 -4.63689 1042.52 -13.8734C1058.31 -18.4917 1072.08 -20.5461 1083.51 -19.8414C1094.93 -19.1368 1103.99 -15.6757 1110.39 -9.27792Z" stroke="url(#paint22_linear_510_1828)" stroke-width="0.5"/>
<path opacity="0.827586" d="M1142.84 23.0253C1148.65 29.9563 1151.31 39.2831 1151.02 50.7224C1150.72 62.1637 1147.48 75.7025 1141.5 91.0301C1129.55 121.685 1106.69 159.447 1074.81 201.807C1011.06 286.525 911.242 389.592 790.479 490.925C669.716 592.257 550.882 672.657 456.38 720.733C409.128 744.771 367.971 760.722 335.706 767.171C319.574 770.395 305.677 771.242 294.358 769.544C283.042 767.847 274.318 763.609 268.502 756.678C262.687 749.747 260.028 740.42 260.322 728.981C260.615 717.54 263.862 704.001 269.839 688.673C281.793 658.018 304.647 620.257 336.526 577.896C400.281 493.178 500.096 390.111 620.859 288.779C741.622 187.446 860.456 107.046 954.958 58.9706C1002.21 34.9319 1043.37 18.9816 1075.63 12.5327C1091.76 9.30814 1105.66 8.46169 1116.98 10.1594C1128.3 11.8567 1137.02 16.0942 1142.84 23.0253Z" stroke="url(#paint23_linear_510_1828)" stroke-width="0.5"/>
<path opacity="0.862069" d="M1171.97 58.1189C1177.16 65.5304 1178.99 75.0534 1177.7 86.4236C1176.41 97.7958 1172 111 1164.71 125.748C1150.13 155.245 1124.07 190.871 1088.62 230.292C1017.73 309.13 909.309 403.106 780.173 493.528C651.038 583.949 525.649 653.687 427.317 693.343C378.149 713.172 335.759 725.474 303.054 729.087C286.702 730.893 272.784 730.525 261.657 727.847C250.531 725.17 242.21 720.188 237.021 712.777C231.831 705.365 229.996 695.842 231.285 684.472C232.575 673.1 236.989 659.895 244.279 645.147C258.859 615.65 284.918 580.025 320.368 540.604C391.264 461.765 499.681 367.789 628.816 277.368C757.952 186.946 883.341 117.209 981.673 77.5528C1030.84 57.7239 1073.23 45.4213 1105.94 41.809C1122.29 40.0028 1136.21 40.3707 1147.33 43.0484C1158.46 45.7256 1166.78 50.7073 1171.97 58.1189Z" stroke="url(#paint24_linear_510_1828)" stroke-width="0.5"/>
<path opacity="0.896552" d="M1197.54 95.705C1202.06 103.541 1203.06 113.187 1200.78 124.402C1198.51 135.618 1192.96 148.388 1184.41 162.445C1167.32 190.558 1138.25 223.777 1099.5 259.958C1022 332.318 905.809 416.487 769.284 495.31C632.76 574.132 501.769 632.676 400.355 663.611C349.646 679.079 306.345 687.64 273.45 688.389C257.003 688.763 243.17 687.183 232.318 683.546C221.469 679.909 213.614 674.221 209.09 666.386C204.566 658.55 203.567 648.903 205.843 637.689C208.119 626.472 213.667 613.703 222.215 599.646C239.31 571.532 268.375 538.313 307.125 502.132C384.623 429.772 500.818 345.603 637.343 266.781C773.867 187.958 904.858 129.415 1006.27 98.4795C1056.98 83.0114 1100.28 74.4501 1133.18 73.7019C1149.62 73.3278 1163.46 74.9074 1174.31 78.5447C1185.16 82.1813 1193.01 87.8693 1197.54 95.705Z" stroke="url(#paint25_linear_510_1828)" stroke-width="0.5"/>
<path opacity="0.931035" d="M1219.35 135.46C1223.18 143.66 1223.33 153.357 1220.08 164.331C1216.84 175.307 1210.2 187.544 1200.46 200.802C1180.98 227.319 1149.13 257.878 1107.37 290.544C1023.86 355.874 900.775 429.596 757.9 496.22C615.025 562.844 479.431 609.748 375.707 631.726C323.842 642.716 279.96 647.471 247.125 645.349C230.708 644.288 217.065 641.509 206.572 636.94C196.08 632.371 188.751 626.02 184.927 617.82C181.103 609.62 180.949 599.923 184.194 588.95C187.439 577.974 194.079 565.737 203.819 552.479C223.3 525.962 255.149 495.402 296.905 462.736C380.414 397.406 503.504 323.684 646.378 257.061C789.253 190.437 924.848 143.533 1028.57 121.554C1080.44 110.565 1124.32 105.81 1157.15 107.932C1173.57 108.992 1187.21 111.772 1197.71 116.341C1208.2 120.909 1215.53 127.26 1219.35 135.46Z" stroke="url(#paint26_linear_510_1828)" stroke-width="0.5"/>
<path opacity="0.965517" d="M1237.22 177.055C1240.32 185.558 1239.62 195.231 1235.44 205.88C1231.25 216.531 1223.57 228.143 1212.71 240.502C1190.99 265.22 1156.6 292.887 1112.15 321.79C1023.27 379.593 894.222 442.306 746.084 496.224C597.946 550.142 458.78 585.05 353.535 597.904C300.91 604.332 256.78 605.244 224.255 600.269C207.993 597.781 194.645 593.823 184.589 588.357C174.536 582.892 167.788 575.926 164.693 567.424C161.599 558.922 162.291 549.248 166.479 538.599C170.668 527.948 178.349 516.336 189.208 503.977C210.926 479.259 245.317 451.592 289.762 422.689C378.647 364.886 507.693 302.173 655.831 248.255C803.969 194.337 943.135 159.43 1048.38 146.575C1101 140.147 1145.13 139.235 1177.66 144.21C1193.92 146.698 1207.27 150.656 1217.33 156.122C1227.38 161.588 1234.13 168.553 1237.22 177.055Z" stroke="url(#paint27_linear_510_1828)" stroke-width="0.5"/>
<path d="M1251.01 220.134C1253.35 228.873 1251.82 238.45 1246.72 248.693C1241.62 258.938 1232.95 269.837 1221.06 281.202C1197.27 303.933 1160.6 328.498 1113.8 353.417C1020.22 403.253 886.196 454.481 733.923 495.282C581.65 536.084 439.971 558.73 334.006 562.363C281.021 564.179 236.98 561.242 205.012 553.451C189.028 549.555 176.076 544.449 166.535 538.127C156.996 531.806 150.881 524.279 148.539 515.54C146.197 506.8 147.73 497.224 152.83 486.98C157.932 476.735 166.596 465.837 178.491 454.471C202.28 431.74 238.952 407.175 285.746 382.256C379.331 332.42 513.352 281.193 665.625 240.391C817.899 199.589 959.578 176.944 1065.54 173.311C1118.53 171.494 1162.57 174.432 1194.54 182.223C1210.52 186.118 1223.47 191.224 1233.01 197.546C1242.55 203.867 1248.67 211.394 1251.01 220.134Z" stroke="url(#paint28_linear_510_1828)" stroke-width="0.5"/>
<defs>
<linearGradient id="paint0_linear_510_1828" x1="676.94" y1="610.925" x2="788.673" y2="371.313" gradientUnits="userSpaceOnUse">
<stop stop-color="#373737"/>
<stop offset="1" stop-color="#949494"/>
</linearGradient>
<linearGradient id="paint1_linear_510_1828" x1="665.534" y1="601.199" x2="797.726" y2="372.236" gradientUnits="userSpaceOnUse">
<stop stop-color="#373737"/>
<stop offset="1" stop-color="#949494"/>
</linearGradient>
<linearGradient id="paint2_linear_510_1828" x1="654.632" y1="590.598" x2="806.275" y2="374.028" gradientUnits="userSpaceOnUse">
<stop stop-color="#373737"/>
<stop offset="1" stop-color="#949494"/>
</linearGradient>
<linearGradient id="paint3_linear_510_1828" x1="644.296" y1="579.175" x2="814.238" y2="376.646" gradientUnits="userSpaceOnUse">
<stop stop-color="#373737"/>
<stop offset="1" stop-color="#949494"/>
</linearGradient>
<linearGradient id="paint4_linear_510_1828" x1="634.613" y1="566.983" x2="821.56" y2="380.036" gradientUnits="userSpaceOnUse">
<stop stop-color="#373737"/>
<stop offset="1" stop-color="#949494"/>
</linearGradient>
<linearGradient id="paint5_linear_510_1828" x1="625.642" y1="554.077" x2="828.171" y2="384.135" gradientUnits="userSpaceOnUse">
<stop stop-color="#373737"/>
<stop offset="1" stop-color="#949494"/>
</linearGradient>
<linearGradient id="paint6_linear_510_1828" x1="617.45" y1="540.521" x2="834.019" y2="388.877" gradientUnits="userSpaceOnUse">
<stop stop-color="#373737"/>
<stop offset="1" stop-color="#949494"/>
</linearGradient>
<linearGradient id="paint7_linear_510_1828" x1="610.068" y1="526.397" x2="839.03" y2="394.205" gradientUnits="userSpaceOnUse">
<stop stop-color="#373737"/>
<stop offset="1" stop-color="#949494"/>
</linearGradient>
<linearGradient id="paint8_linear_510_1828" x1="603.564" y1="511.764" x2="843.176" y2="400.031" gradientUnits="userSpaceOnUse">
<stop stop-color="#373737"/>
<stop offset="1" stop-color="#949494"/>
</linearGradient>
<linearGradient id="paint9_linear_510_1828" x1="597.972" y1="496.707" x2="846.411" y2="406.282" gradientUnits="userSpaceOnUse">
<stop stop-color="#373737"/>
<stop offset="1" stop-color="#949494"/>
</linearGradient>
<linearGradient id="paint10_linear_510_1828" x1="593.328" y1="481.303" x2="848.702" y2="412.875" gradientUnits="userSpaceOnUse">
<stop stop-color="#373737"/>
<stop offset="1" stop-color="#949494"/>
</linearGradient>
<linearGradient id="paint11_linear_510_1828" x1="589.646" y1="465.641" x2="850.012" y2="419.732" gradientUnits="userSpaceOnUse">
<stop stop-color="#373737"/>
<stop offset="1" stop-color="#949494"/>
</linearGradient>
<linearGradient id="paint12_linear_510_1828" x1="586.959" y1="449.805" x2="850.336" y2="426.762" gradientUnits="userSpaceOnUse">
<stop stop-color="#373737"/>
<stop offset="1" stop-color="#949494"/>
</linearGradient>
<linearGradient id="paint13_linear_510_1828" x1="585.277" y1="433.883" x2="849.66" y2="433.883" gradientUnits="userSpaceOnUse">
<stop stop-color="#373737"/>
<stop offset="1" stop-color="#949494"/>
</linearGradient>
<linearGradient id="paint14_linear_510_1828" x1="584.6" y1="417.957" x2="847.977" y2="441" gradientUnits="userSpaceOnUse">
<stop stop-color="#373737"/>
<stop offset="1" stop-color="#949494"/>
</linearGradient>
<linearGradient id="paint15_linear_510_1828" x1="584.932" y1="402.12" x2="845.298" y2="448.03" gradientUnits="userSpaceOnUse">
<stop stop-color="#373737"/>
<stop offset="1" stop-color="#949494"/>
</linearGradient>
<linearGradient id="paint16_linear_510_1828" x1="586.246" y1="386.459" x2="841.62" y2="454.886" gradientUnits="userSpaceOnUse">
<stop stop-color="#373737"/>
<stop offset="1" stop-color="#949494"/>
</linearGradient>
<linearGradient id="paint17_linear_510_1828" x1="588.533" y1="371.058" x2="836.972" y2="461.483" gradientUnits="userSpaceOnUse">
<stop stop-color="#373737"/>
<stop offset="1" stop-color="#949494"/>
</linearGradient>
<linearGradient id="paint18_linear_510_1828" x1="591.766" y1="356" x2="831.378" y2="467.733" gradientUnits="userSpaceOnUse">
<stop stop-color="#373737"/>
<stop offset="1" stop-color="#949494"/>
</linearGradient>
<linearGradient id="paint19_linear_510_1828" x1="595.909" y1="341.368" x2="824.871" y2="473.559" gradientUnits="userSpaceOnUse">
<stop stop-color="#373737"/>
<stop offset="1" stop-color="#949494"/>
</linearGradient>
<linearGradient id="paint20_linear_510_1828" x1="600.929" y1="327.238" x2="817.499" y2="478.882" gradientUnits="userSpaceOnUse">
<stop stop-color="#373737"/>
<stop offset="1" stop-color="#949494"/>
</linearGradient>
<linearGradient id="paint21_linear_510_1828" x1="606.772" y1="313.685" x2="809.301" y2="483.627" gradientUnits="userSpaceOnUse">
<stop stop-color="#373737"/>
<stop offset="1" stop-color="#949494"/>
</linearGradient>
<linearGradient id="paint22_linear_510_1828" x1="613.381" y1="300.781" x2="800.328" y2="487.728" gradientUnits="userSpaceOnUse">
<stop stop-color="#373737"/>
<stop offset="1" stop-color="#949494"/>
</linearGradient>
<linearGradient id="paint23_linear_510_1828" x1="620.698" y1="288.587" x2="790.64" y2="491.116" gradientUnits="userSpaceOnUse">
<stop stop-color="#373737"/>
<stop offset="1" stop-color="#949494"/>
</linearGradient>
<linearGradient id="paint24_linear_510_1828" x1="628.673" y1="277.163" x2="780.317" y2="493.733" gradientUnits="userSpaceOnUse">
<stop stop-color="#373737"/>
<stop offset="1" stop-color="#949494"/>
</linearGradient>
<linearGradient id="paint25_linear_510_1828" x1="637.218" y1="266.564" x2="769.409" y2="495.526" gradientUnits="userSpaceOnUse">
<stop stop-color="#373737"/>
<stop offset="1" stop-color="#949494"/>
</linearGradient>
<linearGradient id="paint26_linear_510_1828" x1="646.273" y1="256.834" x2="758.006" y2="496.447" gradientUnits="userSpaceOnUse">
<stop stop-color="#373737"/>
<stop offset="1" stop-color="#949494"/>
</linearGradient>
<linearGradient id="paint27_linear_510_1828" x1="655.745" y1="248.02" x2="746.17" y2="496.459" gradientUnits="userSpaceOnUse">
<stop stop-color="#373737"/>
<stop offset="1" stop-color="#949494"/>
</linearGradient>
<linearGradient id="paint28_linear_510_1828" x1="665.56" y1="240.15" x2="733.988" y2="495.524" gradientUnits="userSpaceOnUse">
<stop stop-color="#373737"/>
<stop offset="1" stop-color="#949494"/>
</linearGradient>
</defs>
</svg>
