<svg width="1105" height="744" viewBox="0 0 1105 744" fill="none" xmlns="http://www.w3.org/2000/svg">
<path opacity="0.0344828" d="M187.403 431.959C164.4 422.699 167.932 389.09 192.358 384.815L390.182 350.189C403.55 347.849 412.651 335.324 410.745 321.887L382.545 123.045C379.063 98.4937 409.935 84.7486 425.85 103.764L554.749 257.772C563.46 268.179 578.857 269.798 589.541 261.429L747.643 137.586C767.164 122.295 794.504 142.158 785.993 165.449L717.068 354.082C712.41 366.83 718.708 380.974 731.298 386.042L917.599 461.041C940.602 470.301 937.07 503.91 912.644 508.185L714.821 542.81C701.452 545.15 692.352 557.676 694.257 571.113L722.457 769.954C725.939 794.506 695.067 808.251 679.152 789.235L550.254 635.228C541.543 624.82 526.145 623.202 515.461 631.571L357.359 755.414C337.838 770.705 310.498 750.842 319.009 727.55L387.934 538.918C392.592 526.17 386.295 512.026 373.705 506.958L187.403 431.959Z" stroke="url(#paint0_linear_539_678)" stroke-width="0.5"/>
<path opacity="0.0689655" d="M194.11 413.734C171.623 403.283 176.909 369.905 201.526 366.914L397.08 343.152C410.553 341.515 420.296 329.483 419.096 315.964L401.681 119.743C399.489 95.0428 431.038 82.9323 445.936 102.755L564.292 260.229C572.446 271.078 587.738 273.5 598.845 265.702L760.07 152.509C780.365 138.26 806.628 159.527 796.91 182.341L719.711 363.577C714.392 376.063 719.941 390.517 732.248 396.238L910.889 479.266C933.376 489.718 928.089 523.095 903.473 526.086L707.919 549.848C694.446 551.485 684.702 563.517 685.902 577.036L703.318 773.257C705.51 797.958 673.961 810.068 659.063 790.245L540.707 632.771C532.553 621.922 517.261 619.5 506.154 627.298L344.929 740.491C324.634 754.74 298.371 733.473 308.089 710.659L385.288 529.423C390.606 516.937 385.058 502.483 372.751 496.763L194.11 413.734Z" stroke="url(#paint1_linear_539_678)" stroke-width="0.5"/>
<path opacity="0.103448" d="M201.709 396.169C179.8 384.555 186.826 351.5 211.565 349.801L404.266 336.569C417.806 335.64 428.165 324.134 427.675 310.571L420.691 117.543C419.795 92.7617 451.934 82.3189 465.775 102.894L573.584 263.162C581.159 274.423 596.303 277.642 607.804 270.436L771.48 167.874C792.492 154.707 817.606 177.319 806.707 199.593L721.816 373.093C715.851 385.284 720.636 400.008 732.627 406.365L903.286 496.831C925.195 508.445 918.169 541.5 893.43 543.199L700.729 556.431C687.189 557.36 676.83 568.866 677.32 582.429L684.304 775.457C685.2 800.238 653.061 810.681 639.22 790.106L531.411 629.838C523.836 618.577 508.691 615.358 497.191 622.564L333.515 725.126C312.502 738.293 287.389 715.681 298.287 693.407L383.179 519.907C389.144 507.716 384.359 492.992 372.368 486.635L201.709 396.169Z" stroke="url(#paint2_linear_539_678)" stroke-width="0.5"/>
<path opacity="0.137931" d="M210.155 379.307C188.884 366.562 197.63 333.92 222.424 333.518L411.716 330.452C425.286 330.232 436.233 319.284 436.453 305.714L439.52 116.423C439.921 91.6287 472.563 82.8823 485.308 104.154L582.609 266.552C589.585 278.194 604.54 282.201 616.401 275.606L781.866 183.616C803.539 171.567 827.435 195.463 815.385 217.136L723.395 382.6C716.8 394.462 720.808 409.417 732.45 416.392L894.848 513.693C916.119 526.438 907.373 559.08 882.579 559.482L693.287 562.548C679.717 562.768 668.77 573.716 668.55 587.286L665.483 776.577C665.082 801.371 632.44 810.118 619.695 788.846L522.394 626.448C515.418 614.806 500.463 610.799 488.601 617.394L323.137 709.384C301.464 721.433 277.568 697.537 289.618 675.864L381.608 510.4C388.203 498.538 384.195 483.583 372.553 476.608L210.155 379.307Z" stroke="url(#paint3_linear_539_678)" stroke-width="0.5"/>
<path opacity="0.172414" d="M219.384 363.186C198.808 349.346 209.251 317.206 234.032 318.103L419.389 324.808C432.952 325.299 444.457 314.939 445.387 301.399L458.093 116.357C459.792 91.6181 492.847 84.592 504.461 106.501L591.332 270.378C597.688 282.369 612.413 287.153 624.604 281.189L791.208 199.671C813.482 188.773 836.094 213.886 822.927 234.899L724.442 392.07C717.235 403.57 720.454 418.714 731.715 426.289L885.614 529.814C906.189 543.655 895.746 575.794 870.965 574.898L685.608 568.192C672.045 567.701 660.54 578.061 659.61 591.601L646.904 776.643C645.205 801.382 612.15 808.408 600.536 786.499L513.665 622.623C507.309 610.631 492.584 605.847 480.393 611.812L313.789 693.329C291.515 704.228 268.903 679.114 282.07 658.101L380.556 500.931C387.762 489.43 384.543 474.286 373.282 466.711L219.384 363.186Z" stroke="url(#paint4_linear_539_678)" stroke-width="0.5"/>
<path opacity="0.206897" d="M229.352 347.843C209.53 332.945 221.64 301.396 246.34 303.588L427.269 319.646C440.788 320.846 452.82 311.103 454.457 297.63L476.367 117.317C479.358 92.7003 512.735 87.4137 523.187 109.901L599.744 274.619C605.464 286.926 619.918 292.475 632.405 287.156L799.516 215.974C822.33 206.256 843.597 232.518 829.348 252.813L724.977 401.473C717.178 412.581 719.6 427.872 730.45 436.026L875.651 545.158C895.473 560.056 883.363 591.605 858.663 589.413L677.734 573.355C664.215 572.155 652.183 581.898 650.546 595.371L628.636 775.684C625.645 800.301 592.268 805.587 581.816 783.1L505.259 618.382C499.539 606.075 485.085 600.526 472.598 605.845L305.487 677.027C282.673 686.745 261.406 660.482 275.655 640.188L380.026 491.528C387.825 480.42 385.403 465.129 374.553 456.974L229.352 347.843Z" stroke="url(#paint5_linear_539_678)" stroke-width="0.5"/>
<path opacity="0.241379" d="M239.993 333.309C220.978 317.394 234.723 286.522 259.274 290.004L435.314 314.97C448.751 316.876 461.277 307.775 463.617 294.407L494.272 119.268C498.547 94.8418 532.156 91.3094 541.416 114.313L607.814 279.251C612.883 291.841 627.027 298.138 639.774 293.48L806.776 232.459C830.067 223.948 849.931 251.288 834.64 270.809L724.998 410.781C716.629 421.465 718.247 436.863 728.655 445.574L865.002 559.691C884.018 575.607 870.273 606.478 845.721 602.997L669.682 578.03C656.244 576.125 643.719 585.225 641.379 598.593L610.724 773.732C606.448 798.158 572.84 801.691 563.58 778.687L497.181 613.749C492.113 601.159 477.969 594.862 465.221 599.52L298.219 660.541C274.928 669.052 255.065 641.712 270.356 622.191L379.997 482.219C388.367 471.535 386.748 456.137 376.341 447.426L239.993 333.309Z" stroke="url(#paint6_linear_539_678)" stroke-width="0.5"/>
<path opacity="0.275862" d="M251.265 319.614C233.108 302.725 248.45 272.615 272.786 277.377L443.511 310.785C456.83 313.392 469.815 304.959 472.851 291.731L511.771 122.178C517.319 98.0091 551.066 96.2406 559.11 119.697L615.54 284.253C619.943 297.091 633.738 304.12 646.712 300.136L813.009 249.065C836.714 241.785 855.119 270.127 838.827 288.821L724.532 419.97C715.616 430.201 716.426 445.662 726.363 454.906L853.741 573.388C871.898 590.277 856.556 620.388 832.22 615.626L661.495 582.217C648.176 579.611 635.191 588.043 632.155 601.271L593.234 770.825C587.686 794.993 553.939 796.762 545.895 773.306L489.465 608.749C485.063 595.911 471.268 588.882 458.294 592.867L291.996 643.937C268.292 651.217 249.886 622.876 266.178 604.181L380.473 473.033C389.39 462.801 388.58 447.34 378.642 438.097L251.265 319.614Z" stroke="url(#paint7_linear_539_678)" stroke-width="0.5"/>
<path opacity="0.310345" d="M263.092 306.779C245.844 288.963 262.741 259.697 286.794 265.726L451.813 307.09C464.978 310.39 478.386 302.649 482.111 289.598L528.798 126.005C535.603 102.159 569.397 102.159 576.202 126.005L622.889 289.598C626.614 302.649 640.022 310.39 653.186 307.09L818.206 265.726C842.259 259.697 859.156 288.963 841.908 306.779L723.576 429.008C714.136 438.759 714.136 454.241 723.576 463.992L841.908 586.221C859.156 604.037 842.259 633.303 818.206 627.274L653.186 585.91C640.022 582.61 626.614 590.351 622.889 603.402L576.202 766.995C569.397 790.841 535.603 790.84 528.798 766.995L482.111 603.402C478.386 590.351 464.978 582.61 451.813 585.91L286.794 627.274C262.741 633.303 245.844 604.037 263.092 586.221L381.424 463.992C390.864 454.241 390.864 438.759 381.424 429.008L263.092 306.779Z" stroke="url(#paint8_linear_539_678)" stroke-width="0.5"/>
<path opacity="0.344828" d="M275.427 294.828C259.135 276.134 277.54 247.792 301.245 255.072L460.204 303.889C473.178 307.873 486.973 300.844 491.375 288.006L545.315 130.711C553.359 107.255 587.106 109.024 592.654 133.192L629.857 295.264C632.893 308.492 645.878 316.924 659.197 314.318L822.389 282.384C846.724 277.622 862.066 307.732 843.91 324.621L722.153 437.875C712.215 447.119 711.405 462.58 720.322 472.811L829.573 598.172C845.865 616.867 827.46 645.208 803.755 637.929L644.796 589.111C631.822 585.127 618.027 592.156 613.625 604.994L559.685 762.289C551.641 785.745 517.894 783.977 512.346 759.808L475.143 597.736C472.107 584.509 459.122 576.076 445.803 578.683L282.611 610.617C258.275 615.379 242.934 585.268 261.09 568.379L382.847 455.125C392.784 445.882 393.595 430.42 384.678 420.189L275.427 294.828Z" stroke="url(#paint9_linear_539_678)" stroke-width="0.5"/>
<path opacity="0.37931" d="M288.206 283.777C272.914 264.256 292.778 236.916 316.069 245.427L468.65 301.179C481.398 305.837 495.542 299.54 500.61 286.95L561.275 136.254C570.535 113.25 604.144 116.783 608.419 141.209L636.427 301.225C638.767 314.593 651.292 323.694 664.73 321.788L825.569 298.977C850.12 295.495 863.865 326.367 844.85 342.283L720.276 446.546C709.868 455.257 708.25 470.655 716.619 481.339L816.793 609.224C832.084 628.746 812.221 656.085 788.93 647.575L636.348 591.822C623.6 587.164 609.457 593.462 604.388 606.052L543.723 756.747C534.463 779.751 500.855 776.218 496.579 751.792L468.571 591.777C466.231 578.408 453.706 569.308 440.269 571.214L279.43 594.024C254.878 597.506 241.133 566.634 260.149 550.718L384.723 446.455C395.13 437.744 396.748 422.347 388.379 411.663L288.206 283.777Z" stroke="url(#paint10_linear_539_678)" stroke-width="0.5"/>
<path opacity="0.413793" d="M301.372 273.639C287.124 253.344 308.391 227.082 331.204 236.8L477.128 298.957C489.614 304.275 504.068 298.727 509.788 286.42L576.639 142.586C587.091 120.099 620.468 125.385 623.459 150.002L642.591 307.454C644.228 320.926 656.261 330.67 669.779 329.47L827.768 315.448C852.468 313.255 864.579 344.804 844.756 359.703L717.965 454.998C707.116 463.152 704.694 478.444 712.492 489.551L803.63 619.362C817.879 639.657 796.612 665.92 773.798 656.202L627.875 594.045C615.388 588.726 600.934 594.275 595.214 606.582L528.363 750.416C517.912 772.903 484.534 767.617 481.543 743L462.411 585.548C460.774 572.075 448.742 562.332 435.223 563.532L277.234 577.554C252.534 579.746 240.423 548.197 260.246 533.299L387.038 438.004C397.887 429.85 400.309 414.558 392.51 403.451L301.372 273.639Z" stroke="url(#paint11_linear_539_678)" stroke-width="0.5"/>
<path opacity="0.448276" d="M314.859 264.423C301.692 243.41 324.305 218.297 346.579 229.195L485.601 297.217C497.792 303.182 512.517 298.398 518.873 286.407L591.363 149.66C602.977 127.751 636.032 134.777 637.731 159.516L648.333 313.924C649.263 327.464 660.768 337.824 674.331 337.333L829.002 331.738C853.783 330.841 864.226 362.981 843.65 376.821L715.23 463.207C703.969 470.782 700.75 485.926 707.957 497.427L790.138 628.578C803.305 649.591 780.693 674.704 758.419 663.806L619.396 595.784C607.205 589.819 592.481 594.603 586.124 606.594L513.635 743.341C502.021 765.25 468.966 758.224 467.267 733.485L456.664 579.077C455.735 565.537 444.229 555.177 430.666 555.668L275.995 561.264C251.214 562.16 240.772 530.021 261.347 516.18L389.767 429.794C401.028 422.219 404.247 407.075 397.041 395.574L314.859 264.423Z" stroke="url(#paint12_linear_539_678)" stroke-width="0.5"/>
<path opacity="0.482759" d="M328.616 256.135C316.567 234.462 340.462 210.567 362.136 222.616L494.053 295.955C505.915 302.55 520.87 298.543 527.845 286.901L605.419 157.428C618.164 136.157 650.806 144.903 651.208 169.697L653.652 320.611C653.872 334.181 664.82 345.129 678.39 345.348L829.304 347.793C854.098 348.195 862.844 380.837 841.573 393.582L712.1 471.156C700.458 478.131 696.451 493.086 703.045 504.948L776.385 636.865C788.434 658.538 764.539 682.434 742.865 670.385L610.948 597.045C599.086 590.45 584.131 594.457 577.156 606.1L499.582 735.572C486.837 756.844 454.195 748.097 453.793 723.303L451.349 572.39C451.129 558.82 440.181 547.872 426.611 547.652L275.697 545.207C250.903 544.806 242.157 512.164 263.428 499.419L392.901 421.845C404.543 414.869 408.55 399.915 401.956 388.053L328.616 256.135Z" stroke="url(#paint13_linear_539_678)" stroke-width="0.5"/>
<path opacity="0.517241" d="M342.576 248.778C331.678 226.504 356.791 203.892 377.804 217.059L502.45 295.164C513.951 302.371 529.095 299.152 536.67 287.89L618.771 165.84C632.612 145.264 664.751 155.707 663.855 180.488L658.537 327.487C658.046 341.05 668.406 352.556 681.946 353.486L828.695 363.562C853.434 365.261 860.461 398.316 838.551 409.93L708.587 478.824C696.596 485.181 691.812 499.905 697.776 512.096L762.425 644.223C773.323 666.497 748.21 689.11 727.197 675.943L602.551 597.837C591.05 590.631 575.906 593.85 568.331 605.111L486.23 727.162C472.389 747.737 440.25 737.294 441.146 712.513L446.464 565.514C446.955 551.951 436.595 540.445 423.055 539.516L276.306 529.439C251.566 527.74 244.54 494.685 266.45 483.071L396.414 414.177C408.405 407.821 413.189 393.096 407.225 380.905L342.576 248.778Z" stroke="url(#paint14_linear_539_678)" stroke-width="0.5"/>
<path opacity="0.551724" d="M356.682 242.348C346.965 219.534 373.227 198.267 393.522 212.516L510.768 294.832C521.876 302.63 537.167 300.208 545.322 289.359L631.392 174.841C646.291 155.018 677.84 167.129 675.647 191.829L662.982 334.525C661.783 348.044 671.526 360.076 684.999 361.713L827.21 378.993C851.826 381.984 857.112 415.361 834.625 425.813L704.714 486.193C692.407 491.913 686.859 506.367 692.177 518.854L748.318 650.652C758.035 673.466 731.773 694.733 711.478 680.484L594.232 598.168C583.124 590.369 567.833 592.791 559.679 603.641L473.608 718.159C458.71 737.982 427.161 725.871 429.353 701.171L442.018 558.475C443.218 544.956 433.474 532.924 420.001 531.287L277.791 514.007C253.174 511.016 247.888 477.638 270.375 467.187L400.286 406.807C412.593 401.087 418.142 386.633 412.823 374.146L356.682 242.348Z" stroke="url(#paint15_linear_539_678)" stroke-width="0.5"/>
<path opacity="0.586207" d="M370.878 236.842C362.367 213.551 389.707 193.687 409.228 208.979L518.984 294.951C529.668 303.32 545.066 301.702 553.776 291.295L643.259 184.381C659.174 165.365 690.046 179.11 686.564 203.662L666.988 341.699C665.082 355.137 674.182 367.662 687.551 370.002L824.882 394.04C849.308 398.315 852.84 431.923 829.837 441.184L700.505 493.248C687.915 498.317 681.617 512.461 686.275 525.208L734.124 656.159C742.634 679.45 715.295 699.313 695.773 684.022L586.018 598.05C575.333 589.68 559.936 591.299 551.225 601.706L461.743 708.62C445.827 727.636 414.955 713.891 418.437 689.339L438.014 551.302C439.92 537.864 430.819 525.339 417.451 522.999L280.12 498.961C255.694 494.686 252.161 461.078 275.165 451.817L404.497 399.752C417.087 394.684 423.384 380.54 418.726 367.793L370.878 236.842Z" stroke="url(#paint16_linear_539_678)" stroke-width="0.5"/>
<path opacity="0.62069" d="M385.104 232.249C377.824 208.545 406.166 190.139 424.86 206.431L527.072 295.509C537.304 304.425 552.765 303.615 562.009 293.678L654.35 194.404C671.239 176.247 701.349 191.589 696.587 215.925L670.55 348.982C667.943 362.301 676.376 375.286 689.604 378.322L821.747 408.655C845.916 414.203 847.685 447.95 824.228 455.994L695.979 499.974C683.141 504.376 676.112 518.171 680.096 531.145L719.899 660.751C727.179 684.456 698.837 702.861 680.143 686.569L577.931 597.492C567.699 588.575 552.238 589.385 542.995 599.323L450.654 698.596C433.765 716.753 403.654 701.411 408.417 677.075L434.454 544.019C437.06 530.699 428.628 517.715 415.4 514.678L283.256 484.345C259.087 478.797 257.319 445.05 280.775 437.006L409.024 393.027C421.862 388.624 428.891 374.829 424.907 361.856L385.104 232.249Z" stroke="url(#paint17_linear_539_678)" stroke-width="0.5"/>
<path opacity="0.655172" d="M399.303 228.558C393.274 204.505 422.54 187.608 440.356 204.856L535.009 296.491C544.76 305.931 560.242 305.931 569.993 296.491L664.645 204.856C682.461 187.608 711.727 204.505 705.698 228.558L673.666 356.347C670.367 369.511 678.108 382.92 691.158 386.644L817.843 422.798C841.688 429.603 841.688 463.397 817.843 470.202L691.159 506.356C678.108 510.08 670.367 523.488 673.666 536.653L705.698 664.442C711.727 688.495 682.461 705.392 664.645 688.144L569.993 596.509C560.242 587.069 544.76 587.069 535.009 596.509L440.356 688.144C422.54 705.392 393.274 688.495 399.303 664.442L431.335 536.653C434.635 523.489 426.894 510.08 413.843 506.356L287.159 470.202C263.314 463.397 263.314 429.603 287.159 422.798L413.843 386.644C426.894 382.92 434.635 369.512 431.335 356.347L399.303 228.558Z" stroke="url(#paint18_linear_539_678)" stroke-width="0.5"/>
<path opacity="0.689655" d="M413.422 225.743C408.66 201.407 438.77 186.065 455.659 204.222L542.772 297.875C552.015 307.812 567.476 308.622 577.708 299.706L674.133 215.672C692.827 199.38 721.169 217.785 713.889 241.49L676.34 363.758C672.355 376.732 679.384 390.527 692.222 394.929L813.21 436.419C836.667 444.462 834.898 478.21 810.729 483.757L686.067 512.373C672.84 515.409 664.407 528.394 667.014 541.713L691.576 667.236C696.339 691.572 666.228 706.914 649.339 688.757L562.227 595.105C552.983 585.167 537.522 584.357 527.29 593.274L430.866 677.308C412.171 693.6 383.83 675.194 391.109 651.49L428.658 529.222C432.643 516.248 425.614 502.453 412.776 498.05L291.788 456.561C268.332 448.517 270.1 414.77 294.269 409.222L418.931 380.606C432.159 377.57 440.591 364.586 437.985 351.266L413.422 225.743Z" stroke="url(#paint19_linear_539_678)" stroke-width="0.5"/>
<path opacity="0.724138" d="M427.409 223.806C423.928 199.254 454.799 185.509 470.715 204.525L550.343 299.664C559.054 310.072 574.452 311.69 585.136 303.321L682.805 226.816C702.326 211.525 729.666 231.388 721.155 254.679L678.576 371.21C673.918 383.957 680.216 398.101 692.806 403.169L807.895 449.501C830.899 458.761 827.366 492.369 802.94 496.645L680.733 518.035C667.364 520.375 658.264 532.9 660.169 546.338L677.59 669.174C681.072 693.726 650.2 707.471 634.285 688.455L554.656 593.315C545.946 582.908 530.548 581.289 519.864 589.658L422.195 666.164C402.673 681.455 375.334 661.592 383.844 638.3L426.424 521.77C431.081 509.023 424.784 494.879 412.194 489.811L297.104 443.479C274.101 434.219 277.633 400.61 302.059 396.335L424.267 374.945C437.636 372.605 446.736 360.079 444.83 346.642L427.409 223.806Z" stroke="url(#paint20_linear_539_678)" stroke-width="0.5"/>
<path opacity="0.758621" d="M441.213 222.713C439.02 198.013 470.569 185.903 485.468 205.725L557.702 301.834C565.856 312.683 581.148 315.105 592.255 307.307L690.653 238.224C710.948 223.975 737.211 245.242 727.493 268.056L680.377 378.667C675.059 391.153 680.607 405.607 692.915 411.327L801.941 462.001C824.429 472.452 819.142 505.83 794.526 508.821L675.176 523.323C661.703 524.96 651.96 536.992 653.16 550.511L663.789 670.267C665.981 694.968 634.432 707.078 619.534 687.255L547.3 591.147C539.145 580.298 523.854 577.876 512.746 585.674L414.348 654.757C394.053 669.006 367.791 647.739 377.509 624.925L424.624 514.314C429.943 501.828 424.394 487.374 412.087 481.654L303.06 430.98C280.573 420.529 285.86 387.151 310.476 384.16L429.825 369.658C443.298 368.021 453.041 355.989 451.842 342.47L441.213 222.713Z" stroke="url(#paint21_linear_539_678)" stroke-width="0.5"/>
<path opacity="0.793103" d="M454.779 222.441C453.883 197.659 486.022 187.217 499.863 207.792L564.826 304.365C572.401 315.626 587.545 318.845 599.046 311.638L697.672 249.837C718.684 236.67 743.798 259.283 732.899 281.557L681.747 386.102C675.782 398.293 680.566 413.018 692.557 419.374L795.391 473.887C817.301 485.501 810.275 518.556 785.536 520.255L669.42 528.228C655.88 529.157 645.52 540.663 646.011 554.226L650.219 670.539C651.115 695.32 618.976 705.763 605.135 685.188L540.172 588.615C532.597 577.354 517.453 574.135 505.953 581.341L407.327 643.142C386.314 656.309 361.2 633.697 372.099 611.423L423.252 506.877C429.217 494.686 424.432 479.962 412.441 473.605L309.607 419.093C287.698 407.479 294.724 374.424 319.463 372.725L435.578 364.752C449.118 363.822 459.478 352.317 458.987 338.754L454.779 222.441Z" stroke="url(#paint22_linear_539_678)" stroke-width="0.5"/>
<path opacity="0.827586" d="M468.067 222.961C468.469 198.167 501.111 189.421 513.856 210.692L571.702 307.24C578.678 318.882 593.633 322.889 605.495 316.294L703.865 261.605C725.538 249.556 749.434 273.451 737.385 295.125L682.695 393.495C676.101 405.357 680.108 420.312 691.75 427.287L788.298 485.134C809.569 497.879 800.823 530.521 776.029 530.923L663.493 532.745C649.922 532.965 638.975 543.913 638.755 557.483L636.932 670.019C636.53 694.813 603.888 703.56 591.143 682.288L533.297 585.741C526.321 574.098 511.366 570.091 499.505 576.686L401.134 631.375C379.461 643.424 355.565 619.529 367.614 597.856L422.304 499.485C428.898 487.623 424.891 472.668 413.249 465.693L316.702 407.846C295.43 395.101 304.176 362.459 328.971 362.058L441.507 360.235C455.077 360.015 466.024 349.067 466.244 335.497L468.067 222.961Z" stroke="url(#paint23_linear_539_678)" stroke-width="0.5"/>
<path opacity="0.862069" d="M481.029 224.244C482.727 199.505 515.782 192.478 527.397 214.388L578.313 310.439C584.67 322.431 599.395 327.215 611.585 321.25L709.236 273.471C731.51 262.573 754.122 287.686 740.955 308.699L683.23 400.82C676.024 412.32 679.243 427.464 690.504 435.04L780.707 495.718C801.282 509.558 790.84 541.698 766.058 540.801L657.417 536.871C643.854 536.38 632.348 546.74 631.419 560.28L623.972 668.737C622.273 693.476 589.218 700.502 577.604 678.593L526.687 582.541C520.33 570.55 505.606 565.766 493.415 571.731L395.765 619.51C373.49 630.408 350.878 605.295 364.045 584.282L421.77 492.161C428.976 480.66 425.757 465.516 414.496 457.941L324.293 397.263C303.718 383.422 314.161 351.283 338.942 352.179L447.583 356.11C461.146 356.601 472.652 346.241 473.581 332.701L481.029 224.244Z" stroke="url(#paint24_linear_539_678)" stroke-width="0.5"/>
<path opacity="0.896552" d="M493.622 226.255C496.613 201.638 529.991 196.352 540.442 218.839L584.645 313.943C590.365 326.251 604.819 331.799 617.305 326.48L713.791 285.381C736.605 275.664 757.872 301.926 743.623 322.221L683.362 408.053C675.563 419.161 677.985 434.453 688.835 442.607L772.67 505.617C792.493 520.515 780.382 552.064 755.682 549.872L651.219 540.6C637.7 539.4 625.668 549.144 624.031 562.617L611.38 666.725C608.389 691.342 575.012 696.628 564.56 674.141L520.358 579.037C514.638 566.729 500.184 561.181 487.697 566.5L391.212 607.598C368.398 617.316 347.131 591.054 361.379 570.759L421.641 484.926C429.439 473.819 427.017 458.527 416.168 450.373L332.332 387.363C312.51 372.465 324.62 340.916 349.32 343.108L453.784 352.38C467.303 353.579 479.335 343.836 480.972 330.363L493.622 226.255Z" stroke="url(#paint25_linear_539_678)" stroke-width="0.5"/>
<path opacity="0.931035" d="M505.802 228.961C510.078 204.535 543.686 201.002 552.947 224.006L590.678 317.732C595.746 330.322 609.89 336.619 622.637 331.961L717.537 297.286C740.828 288.775 760.691 316.115 745.4 335.636L683.096 415.176C674.727 425.86 676.345 441.257 686.753 449.968L764.232 514.816C783.248 530.731 769.503 561.603 744.952 558.121L644.917 543.934C631.479 542.028 618.954 551.129 616.614 564.497L599.194 664.02C594.919 688.446 561.31 691.979 552.05 668.975L514.319 575.249C509.251 562.659 495.107 556.362 482.359 561.019L387.46 595.695C364.169 604.206 344.305 576.866 359.597 557.345L421.9 477.805C430.27 467.121 428.651 451.723 418.244 443.013L340.764 378.165C321.748 362.25 335.493 331.378 360.045 334.86L460.08 349.047C473.517 350.953 486.043 341.852 488.383 328.484L505.802 228.961Z" stroke="url(#paint26_linear_539_678)" stroke-width="0.5"/>
<path opacity="0.965517" d="M517.541 232.323C523.089 208.154 556.836 206.385 564.88 229.842L596.409 321.784C600.812 334.622 614.607 341.651 627.58 337.666L720.495 309.132C744.2 301.852 762.605 330.194 746.313 348.888L682.454 422.164C673.537 432.395 674.347 447.857 684.285 457.1L755.454 523.299C773.611 540.188 758.269 570.299 733.933 565.537L638.544 546.871C625.225 544.264 612.24 552.697 609.204 565.924L587.458 660.658C581.91 684.827 548.163 686.596 540.119 663.139L508.59 571.197C504.188 558.359 490.393 551.33 477.419 555.315L384.504 583.849C360.8 591.129 342.394 562.788 358.686 544.093L422.546 470.817C431.463 460.586 430.652 445.125 420.715 435.881L349.546 369.682C331.389 352.793 346.731 322.682 371.067 327.445L466.455 346.111C479.775 348.717 492.759 340.285 495.796 327.057L517.541 232.323Z" stroke="url(#paint27_linear_539_678)" stroke-width="0.5"/>
<path d="M528.799 236.302C535.604 212.456 569.398 212.456 576.203 236.302L601.823 326.077C605.548 339.128 618.956 346.869 632.121 343.569L722.678 320.869C746.732 314.84 763.628 344.106 746.38 361.922L681.443 428.998C672.003 438.749 672.003 454.231 681.443 463.982L746.38 531.058C763.628 548.874 746.732 578.14 722.678 572.111L632.121 549.411C618.956 546.112 605.548 553.853 601.823 566.904L576.203 656.679C569.398 680.524 535.604 680.524 528.799 656.679L503.178 566.904C499.454 553.853 486.046 546.112 472.881 549.411L382.323 572.111C358.27 578.14 341.373 548.874 358.621 531.058L423.559 463.982C432.999 454.231 432.999 438.749 423.559 428.998L358.621 361.922C341.373 344.106 358.27 314.84 382.323 320.869L472.881 343.569C486.046 346.869 499.454 339.128 503.178 326.077L528.799 236.302Z" stroke="url(#paint28_linear_539_678)" stroke-width="0.5"/>
<defs>
<linearGradient id="paint0_linear_539_678" x1="106.378" y1="399.611" x2="998.625" y2="493.389" gradientUnits="userSpaceOnUse">
<stop stop-color="#545454"/>
<stop offset="1" stop-color="#AFAFAF"/>
</linearGradient>
<linearGradient id="paint1_linear_539_678" x1="114.889" y1="377.19" x2="990.11" y2="515.811" gradientUnits="userSpaceOnUse">
<stop stop-color="#545454"/>
<stop offset="1" stop-color="#AFAFAF"/>
</linearGradient>
<linearGradient id="paint2_linear_539_678" x1="124.509" y1="355.528" x2="980.486" y2="537.472" gradientUnits="userSpaceOnUse">
<stop stop-color="#545454"/>
<stop offset="1" stop-color="#AFAFAF"/>
</linearGradient>
<linearGradient id="paint3_linear_539_678" x1="135.188" y1="334.681" x2="969.815" y2="558.319" gradientUnits="userSpaceOnUse">
<stop stop-color="#545454"/>
<stop offset="1" stop-color="#AFAFAF"/>
</linearGradient>
<linearGradient id="paint4_linear_539_678" x1="146.854" y1="314.698" x2="958.143" y2="578.302" gradientUnits="userSpaceOnUse">
<stop stop-color="#545454"/>
<stop offset="1" stop-color="#AFAFAF"/>
</linearGradient>
<linearGradient id="paint5_linear_539_678" x1="159.46" y1="295.626" x2="945.543" y2="597.375" gradientUnits="userSpaceOnUse">
<stop stop-color="#545454"/>
<stop offset="1" stop-color="#AFAFAF"/>
</linearGradient>
<linearGradient id="paint6_linear_539_678" x1="172.93" y1="277.506" x2="932.066" y2="615.495" gradientUnits="userSpaceOnUse">
<stop stop-color="#545454"/>
<stop offset="1" stop-color="#AFAFAF"/>
</linearGradient>
<linearGradient id="paint7_linear_539_678" x1="187.214" y1="260.377" x2="917.792" y2="632.625" gradientUnits="userSpaceOnUse">
<stop stop-color="#545454"/>
<stop offset="1" stop-color="#AFAFAF"/>
</linearGradient>
<linearGradient id="paint8_linear_539_678" x1="202.229" y1="244.271" x2="902.771" y2="648.729" gradientUnits="userSpaceOnUse">
<stop stop-color="#545454"/>
<stop offset="1" stop-color="#AFAFAF"/>
</linearGradient>
<linearGradient id="paint9_linear_539_678" x1="217.918" y1="229.22" x2="887.081" y2="663.78" gradientUnits="userSpaceOnUse">
<stop stop-color="#545454"/>
<stop offset="1" stop-color="#AFAFAF"/>
</linearGradient>
<linearGradient id="paint10_linear_539_678" x1="234.21" y1="215.25" x2="870.789" y2="677.751" gradientUnits="userSpaceOnUse">
<stop stop-color="#545454"/>
<stop offset="1" stop-color="#AFAFAF"/>
</linearGradient>
<linearGradient id="paint11_linear_539_678" x1="251.037" y1="202.38" x2="853.965" y2="690.622" gradientUnits="userSpaceOnUse">
<stop stop-color="#545454"/>
<stop offset="1" stop-color="#AFAFAF"/>
</linearGradient>
<linearGradient id="paint12_linear_539_678" x1="268.323" y1="190.627" x2="836.675" y2="702.374" gradientUnits="userSpaceOnUse">
<stop stop-color="#545454"/>
<stop offset="1" stop-color="#AFAFAF"/>
</linearGradient>
<linearGradient id="paint13_linear_539_678" x1="286.005" y1="180.005" x2="818.996" y2="712.996" gradientUnits="userSpaceOnUse">
<stop stop-color="#545454"/>
<stop offset="1" stop-color="#AFAFAF"/>
</linearGradient>
<linearGradient id="paint14_linear_539_678" x1="304.008" y1="170.522" x2="800.993" y2="722.48" gradientUnits="userSpaceOnUse">
<stop stop-color="#545454"/>
<stop offset="1" stop-color="#AFAFAF"/>
</linearGradient>
<linearGradient id="paint15_linear_539_678" x1="322.263" y1="162.181" x2="782.737" y2="730.819" gradientUnits="userSpaceOnUse">
<stop stop-color="#545454"/>
<stop offset="1" stop-color="#AFAFAF"/>
</linearGradient>
<linearGradient id="paint16_linear_539_678" x1="340.701" y1="154.983" x2="764.301" y2="738.018" gradientUnits="userSpaceOnUse">
<stop stop-color="#545454"/>
<stop offset="1" stop-color="#AFAFAF"/>
</linearGradient>
<linearGradient id="paint17_linear_539_678" x1="359.253" y1="148.923" x2="745.751" y2="744.077" gradientUnits="userSpaceOnUse">
<stop stop-color="#545454"/>
<stop offset="1" stop-color="#AFAFAF"/>
</linearGradient>
<linearGradient id="paint18_linear_539_678" x1="377.848" y1="143.993" x2="727.153" y2="749.007" gradientUnits="userSpaceOnUse">
<stop stop-color="#545454"/>
<stop offset="1" stop-color="#AFAFAF"/>
</linearGradient>
<linearGradient id="paint19_linear_539_678" x1="396.422" y1="140.171" x2="708.576" y2="752.808" gradientUnits="userSpaceOnUse">
<stop stop-color="#545454"/>
<stop offset="1" stop-color="#AFAFAF"/>
</linearGradient>
<linearGradient id="paint20_linear_539_678" x1="414.911" y1="137.461" x2="690.088" y2="755.519" gradientUnits="userSpaceOnUse">
<stop stop-color="#545454"/>
<stop offset="1" stop-color="#AFAFAF"/>
</linearGradient>
<linearGradient id="paint21_linear_539_678" x1="433.251" y1="135.833" x2="671.751" y2="757.147" gradientUnits="userSpaceOnUse">
<stop stop-color="#545454"/>
<stop offset="1" stop-color="#AFAFAF"/>
</linearGradient>
<linearGradient id="paint22_linear_539_678" x1="451.375" y1="135.263" x2="653.623" y2="757.717" gradientUnits="userSpaceOnUse">
<stop stop-color="#545454"/>
<stop offset="1" stop-color="#AFAFAF"/>
</linearGradient>
<linearGradient id="paint23_linear_539_678" x1="469.23" y1="135.725" x2="635.769" y2="757.255" gradientUnits="userSpaceOnUse">
<stop stop-color="#545454"/>
<stop offset="1" stop-color="#AFAFAF"/>
</linearGradient>
<linearGradient id="paint24_linear_539_678" x1="486.756" y1="137.188" x2="618.244" y2="755.793" gradientUnits="userSpaceOnUse">
<stop stop-color="#545454"/>
<stop offset="1" stop-color="#AFAFAF"/>
</linearGradient>
<linearGradient id="paint25_linear_539_678" x1="503.898" y1="139.618" x2="601.105" y2="753.362" gradientUnits="userSpaceOnUse">
<stop stop-color="#545454"/>
<stop offset="1" stop-color="#AFAFAF"/>
</linearGradient>
<linearGradient id="paint26_linear_539_678" x1="520.598" y1="142.98" x2="584.398" y2="750.001" gradientUnits="userSpaceOnUse">
<stop stop-color="#545454"/>
<stop offset="1" stop-color="#AFAFAF"/>
</linearGradient>
<linearGradient id="paint27_linear_539_678" x1="536.816" y1="147.235" x2="568.183" y2="745.747" gradientUnits="userSpaceOnUse">
<stop stop-color="#545454"/>
<stop offset="1" stop-color="#AFAFAF"/>
</linearGradient>
<linearGradient id="paint28_linear_539_678" x1="552.501" y1="152.339" x2="552.501" y2="740.641" gradientUnits="userSpaceOnUse">
<stop stop-color="#545454"/>
<stop offset="1" stop-color="#AFAFAF"/>
</linearGradient>
</defs>
</svg>
