<svg width="330" height="400" viewBox="0 0 330 400" fill="none" xmlns="http://www.w3.org/2000/svg">
<path opacity="0.0344828" d="M-70.7553 216.134C-93.7587 206.873 -90.2264 173.265 -65.8003 168.99L62.188 146.587C75.5567 144.247 84.657 131.722 82.7512 118.285L64.5063 -10.3622C61.0244 -34.9139 91.8963 -48.659 107.812 -29.6431L191.207 69.9971C199.918 80.4047 215.315 82.023 225.999 73.6539L328.288 -6.47006C347.81 -21.7614 375.149 -1.89809 366.639 21.3932L322.046 143.435C317.388 156.183 323.685 170.327 336.275 175.395L456.809 223.918C479.812 233.178 476.28 266.787 451.854 271.062L323.865 293.464C310.497 295.804 301.396 308.33 303.302 321.767L321.547 450.414C325.029 474.966 294.157 488.711 278.241 469.695L194.846 370.055C186.136 359.647 170.738 358.029 160.054 366.398L57.765 446.522C38.2435 461.813 10.904 441.95 19.4144 418.658L64.0078 296.616C68.6657 283.869 62.3685 269.725 49.7785 264.657L-70.7553 216.134Z" stroke="url(#paint0_linear_543_947)" stroke-width="0.5"/>
<path opacity="0.0689655" d="M-65.9821 203C-88.4693 192.549 -83.1828 159.171 -58.5665 156.18L67.474 140.865C80.9468 139.228 90.6902 127.196 89.4903 113.677L78.2655 -12.7933C76.0733 -37.4935 107.622 -49.604 122.521 -29.7811L198.804 71.7155C206.958 82.5648 222.25 84.9867 233.358 77.1882L337.272 4.23207C357.567 -10.0166 383.83 11.2503 374.112 34.0642L324.355 150.876C319.036 163.362 324.585 177.816 336.892 183.537L452.031 237.051C474.518 247.503 469.232 280.88 444.615 283.871L318.575 299.186C305.102 300.823 295.359 312.855 296.559 326.374L307.783 452.845C309.976 477.545 278.427 489.655 263.528 469.833L187.245 368.336C179.09 357.487 163.799 355.065 152.691 362.863L48.7769 435.819C28.4819 450.068 2.21946 428.801 11.9372 405.987L61.6942 289.175C67.0128 276.689 61.4644 262.235 49.1569 256.515L-65.9821 203Z" stroke="url(#paint1_linear_543_947)" stroke-width="0.5"/>
<path opacity="0.103448" d="M-60.5661 190.355C-82.4755 178.741 -75.4495 145.686 -50.7103 143.987L72.9993 135.492C86.5393 134.563 96.899 123.057 96.4083 109.494L91.9252 -14.4259C91.0286 -39.2071 123.168 -49.6499 137.009 -29.0745L206.22 73.8139C213.795 85.075 228.939 88.294 240.44 81.0876L345.516 15.2451C366.529 2.07804 391.642 24.6903 380.744 46.9643L326.246 158.347C320.281 170.538 325.065 185.263 337.056 191.619L446.616 249.697C468.525 261.311 461.499 294.366 436.76 296.065L313.05 304.559C299.51 305.489 289.151 316.994 289.641 330.558L294.124 454.477C295.021 479.259 262.881 489.701 249.041 469.126L179.829 366.238C172.254 354.976 157.11 351.757 145.61 358.964L40.5335 424.806C19.5206 437.973 -5.59285 415.361 5.30558 393.087L59.8039 281.704C65.7688 269.513 60.9845 254.789 48.9932 248.432L-60.5661 190.355Z" stroke="url(#paint2_linear_543_947)" stroke-width="0.5"/>
<path opacity="0.137931" d="M-54.5457 178.227C-75.8173 165.482 -67.0708 132.84 -42.2767 132.438L78.7419 130.478C92.312 130.258 103.26 119.31 103.479 105.74L105.44 -15.2784C105.841 -40.0726 138.483 -48.8189 151.228 -27.5473L213.435 76.2776C220.411 87.9197 235.366 91.9269 247.228 85.3322L353.013 26.5206C374.686 14.4714 398.582 38.367 386.532 60.0402L327.721 165.825C321.126 177.687 325.133 192.642 336.775 199.618L440.6 261.825C461.872 274.57 453.125 307.212 428.331 307.613L307.313 309.574C293.743 309.793 282.795 320.741 282.575 334.311L280.615 455.33C280.213 480.124 247.571 488.87 234.826 467.599L172.619 363.774C165.644 352.132 150.689 348.124 138.827 354.719L33.0418 413.531C11.3686 425.58 -12.5269 401.684 -0.477704 380.011L58.3338 274.226C64.9285 262.364 60.9214 247.409 49.2792 240.434L-54.5457 178.227Z" stroke="url(#paint3_linear_543_947)" stroke-width="0.5"/>
<path opacity="0.172414" d="M-47.9669 166.645C-68.5423 152.804 -58.0995 120.664 -33.3184 121.561L84.6723 125.83C98.2353 126.32 109.741 115.961 110.671 102.421L118.759 -15.37C120.457 -40.1091 153.512 -47.1351 165.127 -25.2257L220.425 79.0915C226.782 91.0828 241.506 95.867 253.697 89.9022L359.751 38.0115C382.025 27.113 404.637 52.2265 391.47 73.2393L328.778 173.288C321.571 184.788 324.79 199.932 336.052 207.508L434.017 273.407C454.592 287.248 444.15 319.388 419.368 318.491L301.378 314.222C287.815 313.732 276.309 324.091 275.379 337.631L267.291 455.422C265.593 480.161 232.538 487.187 220.923 465.278L165.625 360.96C159.268 348.969 144.544 344.185 132.353 350.15L26.2994 402.04C4.02536 412.939 -18.5869 387.825 -5.41993 366.813L57.2722 266.764C64.4786 255.263 61.2597 240.119 49.9985 232.544L-47.9669 166.645Z" stroke="url(#paint4_linear_543_947)" stroke-width="0.5"/>
<path opacity="0.206897" d="M-40.8627 155.633C-60.6855 140.734 -48.5751 109.185 -23.8748 111.378L90.7757 121.553C104.294 122.753 116.327 113.01 117.964 99.5371L131.847 -14.7236C134.839 -39.34 168.216 -44.6265 178.668 -22.1393L227.18 82.2388C232.901 94.5463 247.355 100.095 259.841 94.7761L365.736 49.6695C388.55 39.9516 409.817 66.2141 395.568 86.5091L329.43 180.711C321.632 191.819 324.054 207.111 334.903 215.265L426.914 284.419C446.736 299.318 434.626 330.867 409.926 328.674L295.275 318.499C281.757 317.299 269.724 327.042 268.087 340.515L254.204 454.776C251.212 479.392 217.835 484.679 207.383 462.191L158.871 357.813C153.15 345.506 138.696 339.957 126.21 345.276L20.3153 390.383C-2.49861 400.1 -23.7656 373.838 -9.51694 353.543L56.6208 259.341C64.4192 248.233 61.9973 232.941 51.148 224.787L-40.8627 155.633Z" stroke="url(#paint5_linear_543_947)" stroke-width="0.5"/>
<path opacity="0.241379" d="M-33.2783 145.214C-52.2942 129.298 -38.5491 98.4266 -13.9974 101.909L97.0262 117.654C110.464 119.56 122.989 110.46 125.329 97.0909L144.662 -13.3646C148.938 -37.7906 182.546 -41.323 191.806 -18.3196L233.682 85.7025C238.751 98.2925 252.894 104.59 265.642 99.9319L370.966 61.4472C394.257 52.9368 414.12 80.2763 398.829 99.7977L329.681 188.074C321.312 198.759 322.93 214.156 333.338 222.867L419.329 294.838C438.344 310.753 424.599 341.625 400.048 338.143L289.024 322.398C275.587 320.492 263.061 329.592 260.721 342.961L241.388 453.416C237.113 477.842 203.504 481.375 194.244 458.371L152.368 354.349C147.3 341.759 133.156 335.462 120.408 340.12L15.0845 378.604C-8.20678 387.115 -28.0701 359.775 -12.7788 340.254L56.3691 251.977C64.7382 241.293 63.1199 225.896 52.7123 217.185L-33.2783 145.214Z" stroke="url(#paint6_linear_543_947)" stroke-width="0.5"/>
<path opacity="0.275862" d="M-25.2525 135.409C-43.4094 118.52 -28.0675 88.4097 -3.73164 93.1718L103.404 114.137C116.724 116.743 129.708 108.311 132.745 95.0828L157.169 -11.3179C162.716 -35.4867 196.464 -37.2554 204.507 -13.7989L239.919 89.4661C244.322 102.304 258.117 109.333 271.091 105.349L375.448 73.2998C399.153 66.02 417.558 94.3616 401.266 113.056L329.542 195.356C320.625 205.588 321.436 221.049 331.373 230.292L411.307 304.645C429.464 321.534 414.122 351.644 389.786 346.882L282.65 325.917C269.331 323.311 256.346 331.743 253.31 344.971L228.886 451.371C223.338 475.54 189.591 477.309 181.547 453.852L146.135 350.587C141.733 337.749 127.938 330.721 114.964 334.705L10.6063 366.754C-13.0985 374.033 -31.5038 345.692 -15.2118 326.997L56.5123 244.697C65.4291 234.466 64.6189 219.005 54.6814 209.761L-25.2525 135.409Z" stroke="url(#paint7_linear_543_947)" stroke-width="0.5"/>
<path opacity="0.310345" d="M-16.8348 126.231C-34.0829 108.415 -17.1861 79.1491 6.86714 85.1784L109.882 111C123.046 114.3 136.454 106.559 140.179 93.5081L169.324 -8.61603C176.129 -32.4614 209.922 -32.4613 216.727 -8.61594L245.872 93.5081C249.597 106.559 263.005 114.3 276.17 111L379.184 85.1784C403.237 79.1491 420.134 108.415 402.886 126.231L329.016 202.533C319.576 212.284 319.576 227.767 329.016 237.518L402.886 313.82C420.134 331.636 403.237 360.902 379.184 354.873L276.17 329.051C263.005 325.751 249.597 333.492 245.872 346.543L216.727 448.667C209.922 472.513 176.129 472.513 169.324 448.667L140.179 346.543C136.454 333.492 123.046 325.751 109.882 329.051L6.86708 354.873C-17.1862 360.902 -34.0829 331.636 -16.8348 313.82L57.0348 237.518C66.4749 227.767 66.4749 212.284 57.0348 202.534L-16.8348 126.231Z" stroke="url(#paint8_linear_543_947)" stroke-width="0.5"/>
<path opacity="0.344828" d="M-8.06473 117.699C-24.3568 99.0041 -5.95151 70.6624 17.7532 77.9423L116.439 108.249C129.413 112.234 143.208 105.205 147.61 92.3667L181.098 -5.28591C189.142 -28.7424 222.889 -26.9738 228.437 -2.80498L251.533 97.813C254.569 111.041 267.554 119.473 280.873 116.867L382.187 97.0414C406.522 92.2793 421.864 122.39 403.708 139.279L328.118 209.59C318.181 218.833 317.37 234.294 326.287 244.526L394.113 322.353C410.405 341.048 392 369.389 368.295 362.109L269.609 331.802C256.635 327.818 242.84 334.847 238.438 347.685L204.95 445.338C196.907 468.794 163.159 467.025 157.612 442.857L134.515 342.239C131.479 329.011 118.494 320.578 105.175 323.185L3.86163 343.01C-20.4742 347.772 -35.8162 317.662 -17.6593 300.773L57.9303 230.462C67.8678 221.218 68.678 205.757 59.7612 195.526L-8.06473 117.699Z" stroke="url(#paint9_linear_543_947)" stroke-width="0.5"/>
<path opacity="0.37931" d="M1.01585 109.82C-14.2755 90.299 5.58792 62.9595 28.8792 71.47L123.057 105.882C135.805 110.54 149.949 104.243 155.017 91.6527L192.461 -1.36162C201.722 -24.365 235.33 -20.8325 239.606 3.59352L256.893 102.36C259.233 115.729 271.758 124.829 285.196 122.924L384.471 108.844C409.023 105.362 422.767 136.234 403.752 152.15L326.861 216.504C316.453 225.215 314.835 240.613 323.204 251.297L385.034 330.232C400.326 349.753 380.462 377.093 357.171 368.582L262.993 334.17C250.245 329.512 236.101 335.81 231.033 348.4L193.589 441.414C184.328 464.417 150.72 460.885 146.445 436.459L129.157 337.692C126.817 324.323 114.292 315.223 100.854 317.129L1.5795 331.208C-22.9722 334.69 -36.7172 303.818 -17.7013 287.903L59.1896 223.548C69.5972 214.837 71.2155 199.44 62.8464 188.755L1.01585 109.82Z" stroke="url(#paint10_linear_543_947)" stroke-width="0.5"/>
<path opacity="0.413793" d="M10.3614 102.605C-3.88733 82.3105 17.3796 56.048 40.1935 65.7658L129.712 103.897C142.199 109.216 156.653 103.667 162.373 91.3598L203.384 3.12288C213.835 -19.3643 247.213 -14.0779 250.204 10.5385L261.941 107.13C263.578 120.603 275.61 130.346 289.129 129.146L386.049 120.544C410.75 118.352 422.86 149.901 403.037 164.799L325.255 223.259C314.406 231.413 311.984 246.705 319.782 257.813L375.692 337.447C389.941 357.742 368.674 384.005 345.86 374.287L256.341 336.156C243.855 330.837 229.401 336.386 223.681 348.693L182.67 436.93C172.219 459.417 138.841 454.131 135.85 429.514L124.113 332.923C122.476 319.45 110.444 309.707 96.9253 310.907L0.00457159 319.509C-24.6957 321.701 -36.8062 290.152 -16.9834 275.254L60.7986 216.794C71.6479 208.64 74.0698 193.348 66.2714 182.24L10.3614 102.605Z" stroke="url(#paint11_linear_543_947)" stroke-width="0.5"/>
<path opacity="0.448276" d="M19.9237 96.0585C6.75671 75.0456 29.3689 49.9321 51.643 60.8305L136.379 102.291C148.57 108.256 163.294 103.471 169.651 91.48L213.834 8.13164C225.448 -13.7778 258.503 -6.75178 260.202 17.9874L266.664 112.101C267.594 125.641 279.099 136.001 292.662 135.51L386.936 132.099C411.717 131.203 422.16 163.342 401.584 177.183L323.311 229.836C312.05 237.411 308.831 252.555 316.037 264.056L366.128 343.994C379.295 365.007 356.682 390.12 334.408 379.222L249.673 337.761C237.482 331.797 222.757 336.581 216.4 348.572L172.218 431.921C160.603 453.83 127.548 446.804 125.85 422.065L119.387 327.951C118.458 314.411 106.952 304.052 93.3889 304.542L-0.88441 307.953C-25.6656 308.85 -36.1084 276.71 -15.5331 262.869L62.7404 210.216C74.0015 202.641 77.2205 187.497 70.0141 175.996L19.9237 96.0585Z" stroke="url(#paint12_linear_543_947)" stroke-width="0.5"/>
<path opacity="0.482759" d="M29.6645 90.1828C17.6153 68.5096 41.5109 44.6141 63.1841 56.6633L143.041 101.06C154.903 107.655 169.858 103.648 176.833 92.0054L223.793 13.6282C236.538 -7.64335 269.18 1.10309 269.582 25.8972L271.062 117.254C271.281 130.824 282.229 141.772 295.799 141.991L387.156 143.471C411.95 143.873 420.696 176.515 399.425 189.26L321.048 236.22C309.405 243.195 305.398 258.15 311.993 270.012L356.39 349.869C368.439 371.542 344.543 395.438 322.87 383.388L243.013 338.992C231.151 332.397 216.196 336.404 209.221 348.046L162.261 426.424C149.516 447.695 116.874 438.949 116.472 414.155L114.993 322.798C114.773 309.228 103.825 298.28 90.255 298.06L-1.10161 296.581C-25.8957 296.179 -34.6421 263.537 -13.3706 250.792L65.0066 203.832C76.6487 196.857 80.6558 181.902 74.0612 170.04L29.6645 90.1828Z" stroke="url(#paint13_linear_543_947)" stroke-width="0.5"/>
<path opacity="0.517241" d="M39.5354 84.9795C28.637 62.7054 53.7504 40.0931 74.7633 53.2601L149.673 100.2C161.174 107.407 176.318 104.188 183.893 92.9264L233.235 19.5759C247.076 -0.999426 279.215 9.44329 278.319 34.2245L275.122 122.569C274.632 136.132 284.991 147.637 298.531 148.567L386.726 154.623C411.465 156.322 418.491 189.377 396.582 200.991L318.475 242.395C306.484 248.751 301.7 263.476 307.664 275.667L346.517 355.073C357.415 377.347 332.302 399.96 311.289 386.793L236.379 339.853C224.878 332.646 209.734 335.865 202.159 347.126L152.818 420.477C138.977 441.052 106.837 430.609 107.734 405.828L110.93 317.484C111.421 303.921 101.061 292.415 87.521 291.486L-0.673209 285.43C-25.4123 283.731 -32.4385 250.676 -10.5291 239.062L67.5772 197.658C79.5685 191.301 84.3528 176.577 78.388 164.386L39.5354 84.9795Z" stroke="url(#paint14_linear_543_947)" stroke-width="0.5"/>
<path opacity="0.551724" d="M49.4955 80.4436C39.7777 57.6296 66.0402 36.3627 86.3352 50.6114L156.258 99.703C167.366 107.501 182.657 105.079 190.812 94.2302L242.142 25.934C257.041 6.11113 288.59 18.2217 286.397 42.922L278.844 128.023C277.645 141.542 287.388 153.574 300.861 155.211L385.672 165.516C410.289 168.507 415.575 201.885 393.088 212.336L315.612 248.346C303.304 254.066 297.756 268.52 303.075 281.006L336.556 359.608C346.273 382.422 320.011 403.689 299.716 389.44L229.793 340.349C218.685 332.55 203.394 334.972 195.239 345.821L143.909 414.118C129.01 433.94 97.4614 421.83 99.6536 397.129L107.207 312.029C108.407 298.51 98.6632 286.478 85.1904 284.841L0.378792 274.535C-24.2375 271.544 -29.524 238.167 -7.03675 227.715L70.4393 191.706C82.7467 185.986 88.2951 171.532 82.9765 159.045L49.4955 80.4436Z" stroke="url(#paint15_linear_543_947)" stroke-width="0.5"/>
<path opacity="0.586207" d="M59.5035 76.5722C50.9931 53.2809 78.3326 33.4176 97.854 48.7089L162.776 99.5633C173.461 107.932 188.858 106.314 197.569 95.9065L250.5 32.6652C266.415 13.6493 297.287 27.3944 293.805 51.9461L282.225 133.598C280.319 147.035 289.42 159.561 302.788 161.901L384.022 176.119C408.448 180.394 411.981 214.003 388.977 223.263L312.475 254.061C299.885 259.129 293.588 273.273 298.245 286.02L326.549 363.48C335.059 386.771 307.72 406.635 288.198 391.343L223.276 340.489C212.591 332.12 197.194 333.738 188.483 344.146L135.553 407.387C119.637 426.403 88.7651 412.658 92.2471 388.106L103.827 306.454C105.733 293.017 96.6325 280.492 83.2638 278.152L2.03006 263.933C-22.396 259.658 -25.9284 226.049 -2.92503 216.789L73.5774 185.992C86.1674 180.923 92.4647 166.78 87.8068 154.032L59.5035 76.5722Z" stroke="url(#paint16_linear_543_947)" stroke-width="0.5"/>
<path opacity="0.62069" d="M69.5158 73.3557C62.236 49.6509 90.5776 31.2457 109.272 47.5378L169.208 99.7712C179.439 108.688 194.9 107.878 204.144 97.9403L258.291 39.728C275.18 21.5711 305.29 36.913 300.528 61.2489L285.26 139.271C282.654 152.591 291.086 165.575 304.314 168.612L381.801 186.398C405.97 191.946 407.739 225.693 384.282 233.737L309.079 259.526C296.241 263.929 289.212 277.723 293.196 290.697L316.536 366.696C323.816 390.401 295.474 408.806 276.78 392.514L216.844 340.281C206.613 331.364 191.152 332.174 181.908 342.112L127.761 400.324C110.872 418.481 80.7615 403.139 85.5236 378.803L100.791 300.781C103.398 287.462 94.9654 274.477 81.7375 271.441L4.25056 253.654C-19.9183 248.106 -21.6868 214.359 1.7697 206.315L76.9729 180.526C89.811 176.124 96.8398 162.329 92.8554 149.355L69.5158 73.3557Z" stroke="url(#paint17_linear_543_947)" stroke-width="0.5"/>
<path opacity="0.655172" d="M79.494 70.7842C73.4647 46.731 102.731 29.8342 120.547 47.0823L175.535 100.318C185.286 109.758 200.768 109.758 210.519 100.317L265.508 47.0823C283.324 29.8342 312.59 46.731 306.561 70.7842L287.952 145.023C284.652 158.188 292.393 171.596 305.444 175.32L379.041 196.324C402.886 203.129 402.886 236.923 379.041 243.728L305.444 264.731C292.393 268.456 284.652 281.864 287.952 295.029L306.561 369.268C312.59 393.321 283.324 410.218 265.508 392.969L210.519 339.734C200.768 330.294 185.286 330.294 175.535 339.734L120.547 392.969C102.731 410.217 73.4647 393.321 79.494 369.268L98.1028 295.029C101.403 281.864 93.6615 268.456 80.6107 264.731L7.01357 243.728C-16.8318 236.923 -16.8318 203.129 7.01356 196.324L80.6107 175.32C93.6615 171.596 101.403 158.188 98.1028 145.023L79.494 70.7842Z" stroke="url(#paint18_linear_543_947)" stroke-width="0.5"/>
<path opacity="0.689655" d="M89.3931 68.8371C84.631 44.5013 114.741 29.1593 131.63 47.3162L181.737 101.184C190.98 111.122 206.441 111.932 216.673 103.015L272.135 54.6798C290.83 38.3878 319.171 56.793 311.892 80.4978L290.294 150.825C286.309 163.799 293.338 177.594 306.176 181.996L375.767 205.861C399.224 213.904 397.455 247.652 373.286 253.199L301.582 269.659C288.354 272.695 279.922 285.68 282.528 298.999L296.657 371.199C301.419 395.535 271.308 410.876 254.419 392.72L204.313 338.852C195.07 328.914 179.608 328.104 169.377 337.021L113.914 385.356C95.2199 401.648 66.8783 383.243 74.1581 359.538L95.7559 289.211C99.7403 276.237 92.7114 262.442 79.8734 258.04L10.2826 234.175C-13.1739 226.131 -11.4054 192.384 12.7635 186.836L84.4676 170.377C97.6954 167.341 106.128 154.356 103.521 141.037L89.3931 68.8371Z" stroke="url(#paint19_linear_543_947)" stroke-width="0.5"/>
<path opacity="0.724138" d="M99.1813 67.5149C95.6993 42.9632 126.571 29.2182 142.487 48.2341L187.801 102.376C196.512 112.783 211.91 114.402 222.594 106.032L278.175 62.4954C297.696 47.2041 325.036 67.0674 316.525 90.3587L292.294 156.673C287.636 169.42 293.934 183.564 306.524 188.633L372.018 214.998C395.022 224.259 391.489 257.867 367.063 262.143L297.518 274.315C284.149 276.655 275.049 289.181 276.955 302.618L286.869 372.521C290.351 397.073 259.479 410.818 243.563 391.802L198.249 337.66C189.538 327.253 174.14 325.634 163.456 334.003L107.875 377.541C88.3539 392.832 61.0144 372.969 69.5248 349.677L93.7556 283.363C98.4134 270.616 92.1162 256.472 79.5262 251.403L14.0316 225.037C-8.97179 215.777 -5.43939 182.169 18.9867 177.893L88.5318 165.721C101.9 163.381 111.001 150.855 109.095 137.418L99.1813 67.5149Z" stroke="url(#paint20_linear_543_947)" stroke-width="0.5"/>
<path opacity="0.758621" d="M108.818 66.7926C106.626 42.0923 138.175 29.9818 153.073 49.8046L193.709 103.872C201.864 114.721 217.155 117.143 228.263 109.345L283.618 70.4809C303.913 56.2322 330.176 77.4991 320.458 100.313L293.952 162.539C288.634 175.025 294.182 189.479 306.49 195.2L367.824 223.707C390.312 234.158 385.025 267.536 360.409 270.527L293.267 278.685C279.794 280.322 270.051 292.354 271.25 305.873L277.23 373.244C279.422 397.944 247.873 410.055 232.975 390.232L192.338 336.165C184.184 325.316 168.892 322.894 157.785 330.692L102.429 369.556C82.1346 383.805 55.872 362.538 65.5898 339.724L92.0954 277.498C97.4141 265.012 91.8657 250.557 79.5582 244.837L18.2235 216.33C-4.26375 205.878 1.02269 172.501 25.639 169.51L92.781 161.351C106.254 159.714 115.997 147.682 114.797 134.164L108.818 66.7926Z" stroke="url(#paint21_linear_543_947)" stroke-width="0.5"/>
<path opacity="0.793103" d="M118.271 66.6492C117.374 41.868 149.514 31.4253 163.354 52.0006L199.45 105.659C207.025 116.92 222.169 120.139 233.669 112.933L288.469 78.5945C309.482 65.4275 334.595 88.0398 323.697 110.314L295.275 168.403C289.31 180.593 294.094 195.318 306.085 201.675L363.223 231.963C385.133 243.577 378.106 276.632 353.367 278.331L288.85 282.761C275.31 283.691 264.95 295.197 265.441 308.76L267.779 373.387C268.676 398.168 236.536 408.61 222.695 388.035L186.6 334.377C179.025 323.115 163.881 319.896 152.38 327.103L97.5808 361.441C76.568 374.608 51.4545 351.996 62.353 329.722L90.7751 271.633C96.7399 259.442 91.9556 244.718 79.9643 238.361L22.8266 208.073C0.917253 196.458 7.94338 163.403 32.6825 161.705L97.1998 157.275C110.74 156.345 121.1 144.839 120.609 131.276L118.271 66.6492Z" stroke="url(#paint22_linear_543_947)" stroke-width="0.5"/>
<path opacity="0.827586" d="M127.503 67.065C127.905 42.2708 160.547 33.5244 173.292 54.7959L205.004 107.725C211.98 119.367 226.935 123.375 238.797 116.78L292.725 86.7981C314.399 74.7489 338.294 98.6445 326.245 120.318L296.263 174.246C289.668 186.108 293.676 201.063 305.318 208.039L358.247 239.751C379.519 252.496 370.772 285.138 345.978 285.54L284.284 286.539C270.713 286.759 259.766 297.707 259.546 311.277L258.547 372.971C258.145 397.766 225.503 406.512 212.758 385.241L181.045 332.311C174.07 320.669 159.115 316.662 147.253 323.257L93.3243 353.238C71.6512 365.288 47.7555 341.392 59.8047 319.719L89.7865 265.79C96.3812 253.928 92.3741 238.973 80.7319 231.998L27.8026 200.285C6.53107 187.54 15.2774 154.898 40.0716 154.496L101.766 153.497C115.336 153.277 126.284 142.33 126.504 128.76L127.503 67.065Z" stroke="url(#paint23_linear_543_947)" stroke-width="0.5"/>
<path opacity="0.862069" d="M136.484 68.0151C138.183 43.276 171.238 36.2499 182.852 58.1593L210.362 110.055C216.719 122.046 231.443 126.83 243.634 120.866L296.393 95.051C318.667 84.1526 341.28 109.266 328.113 130.279L296.925 180.051C289.718 191.551 292.937 206.695 304.198 214.271L352.934 247.054C373.509 260.895 363.067 293.034 338.285 292.138L279.588 290.014C266.025 289.524 254.519 299.883 253.589 313.423L249.566 372.021C247.867 396.761 214.812 403.787 203.198 381.877L175.688 329.982C169.331 317.991 154.607 313.206 142.416 319.171L89.6568 344.986C67.3827 355.884 44.7704 330.77 57.9375 309.758L89.1254 259.986C96.3318 248.485 93.1129 233.341 81.8517 225.766L33.1161 192.982C12.5407 179.142 22.9835 147.002 47.7647 147.899L106.462 150.022C120.025 150.513 131.531 140.153 132.461 126.613L136.484 68.0151Z" stroke="url(#paint24_linear_543_947)" stroke-width="0.5"/>
<path opacity="0.896552" d="M145.186 69.4744C148.178 44.8581 181.555 39.5716 192.007 62.0588L215.512 112.633C221.233 124.94 235.687 130.489 248.173 125.17L299.482 103.315C322.295 93.5968 343.562 119.859 329.314 140.154L297.268 185.798C289.47 196.905 291.892 212.197 302.741 220.351L347.323 253.858C367.145 268.757 355.035 300.306 330.335 298.114L274.784 293.183C261.265 291.983 249.233 301.727 247.596 315.199L240.869 370.562C237.877 395.178 204.5 400.464 194.048 377.977L170.543 327.403C164.822 315.096 150.368 309.548 137.882 314.866L86.5735 336.721C63.7595 346.439 42.4926 320.177 56.7413 299.882L88.7867 254.238C96.5852 243.131 94.1632 227.839 83.3139 219.685L38.7323 186.178C18.9095 171.279 31.0201 139.73 55.7204 141.923L111.271 146.853C124.79 148.053 136.822 138.309 138.459 124.837L145.186 69.4744Z" stroke="url(#paint25_linear_543_947)" stroke-width="0.5"/>
<path opacity="0.931035" d="M153.574 71.4167C157.849 46.9906 191.457 43.4582 200.718 66.4616L220.437 115.444C225.505 128.034 239.649 134.332 252.396 129.674L301.992 111.552C325.283 103.041 345.147 130.381 329.855 149.902L297.294 191.471C288.925 202.155 290.544 217.553 300.951 226.263L341.443 260.153C360.459 276.069 346.714 306.941 322.162 303.459L269.883 296.045C256.445 294.139 243.92 303.239 241.58 316.608L232.476 368.62C228.201 393.046 194.592 396.578 185.332 373.575L165.613 324.592C160.545 312.002 146.401 305.705 133.653 310.363L84.0576 328.485C60.7663 336.995 40.9029 309.656 56.1943 290.134L88.7552 248.566C97.1243 237.882 95.506 222.484 85.0983 213.773L44.6064 179.883C25.5905 163.968 39.3355 133.096 63.8872 136.578L116.167 143.992C129.604 145.898 142.13 136.797 144.47 123.429L153.574 71.4167Z" stroke="url(#paint26_linear_543_947)" stroke-width="0.5"/>
<path opacity="0.965517" d="M161.63 73.8126C167.178 49.6438 200.925 47.8752 208.969 71.3317L225.135 118.473C229.537 131.311 243.332 138.34 256.306 134.356L303.947 119.725C327.651 112.445 346.057 140.787 329.765 159.481L297.022 197.052C288.105 207.284 288.915 222.745 298.853 231.988L335.343 265.931C353.5 282.82 338.158 312.93 313.822 308.168L264.914 298.597C251.594 295.991 238.61 304.423 235.573 317.651L224.424 366.224C218.876 390.393 185.129 392.162 177.085 368.705L160.919 321.564C156.516 308.726 142.722 301.697 129.748 305.681L82.1074 320.312C58.4026 327.592 39.9974 299.25 56.2894 280.556L89.0322 242.985C97.949 232.753 97.1387 217.292 87.2013 208.048L50.7106 174.106C32.5537 157.217 47.8957 127.107 72.2315 131.869L121.14 141.439C134.459 144.046 147.444 135.614 150.48 122.386L161.63 73.8126Z" stroke="url(#paint27_linear_543_947)" stroke-width="0.5"/>
<path d="M169.324 76.6324C176.13 52.787 209.923 52.787 216.728 76.6324L229.591 121.703C233.315 134.753 246.723 142.495 259.888 139.195L305.351 127.799C329.404 121.77 346.301 151.036 329.053 168.852L296.452 202.526C287.012 212.277 287.012 227.759 296.452 237.51L329.053 271.185C346.301 289.001 329.404 318.267 305.351 312.238L259.888 300.842C246.723 297.542 233.315 305.283 229.591 318.334L216.728 363.404C209.923 387.249 176.13 387.249 169.324 363.404L156.462 318.334C152.738 305.283 139.329 297.542 126.165 300.842L80.7016 312.238C56.6484 318.267 39.7516 289.001 56.9997 271.185L89.6004 237.51C99.0405 227.759 99.0405 212.277 89.6004 202.526L56.9997 168.852C39.7516 151.036 56.6483 121.77 80.7016 127.799L126.165 139.195C139.329 142.495 152.738 134.753 156.462 121.703L169.324 76.6324Z" stroke="url(#paint28_linear_543_947)" stroke-width="0.5"/>
<defs>
<linearGradient id="paint0_linear_543_947" x1="-151.781" y1="183.785" x2="537.834" y2="256.267" gradientUnits="userSpaceOnUse">
<stop/>
<stop offset="1" stop-color="white" stop-opacity="0"/>
</linearGradient>
<linearGradient id="paint1_linear_543_947" x1="-145.203" y1="166.456" x2="531.252" y2="273.596" gradientUnits="userSpaceOnUse">
<stop/>
<stop offset="1" stop-color="white" stop-opacity="0"/>
</linearGradient>
<linearGradient id="paint2_linear_543_947" x1="-137.766" y1="149.714" x2="523.816" y2="290.338" gradientUnits="userSpaceOnUse">
<stop/>
<stop offset="1" stop-color="white" stop-opacity="0"/>
</linearGradient>
<linearGradient id="paint3_linear_543_947" x1="-129.513" y1="133.601" x2="515.568" y2="306.45" gradientUnits="userSpaceOnUse">
<stop/>
<stop offset="1" stop-color="white" stop-opacity="0"/>
</linearGradient>
<linearGradient id="paint4_linear_543_947" x1="-120.496" y1="118.157" x2="506.546" y2="321.895" gradientUnits="userSpaceOnUse">
<stop/>
<stop offset="1" stop-color="white" stop-opacity="0"/>
</linearGradient>
<linearGradient id="paint5_linear_543_947" x1="-110.755" y1="103.416" x2="496.806" y2="336.636" gradientUnits="userSpaceOnUse">
<stop/>
<stop offset="1" stop-color="white" stop-opacity="0"/>
</linearGradient>
<linearGradient id="paint6_linear_543_947" x1="-100.342" y1="89.4105" x2="486.392" y2="350.641" gradientUnits="userSpaceOnUse">
<stop/>
<stop offset="1" stop-color="white" stop-opacity="0"/>
</linearGradient>
<linearGradient id="paint7_linear_543_947" x1="-89.3035" y1="76.172" x2="475.358" y2="363.881" gradientUnits="userSpaceOnUse">
<stop/>
<stop offset="1" stop-color="white" stop-opacity="0"/>
</linearGradient>
<linearGradient id="paint8_linear_543_947" x1="-77.6978" y1="63.7234" x2="463.749" y2="376.328" gradientUnits="userSpaceOnUse">
<stop/>
<stop offset="1" stop-color="white" stop-opacity="0"/>
</linearGradient>
<linearGradient id="paint9_linear_543_947" x1="-65.5729" y1="52.0909" x2="451.621" y2="387.961" gradientUnits="userSpaceOnUse">
<stop/>
<stop offset="1" stop-color="white" stop-opacity="0"/>
</linearGradient>
<linearGradient id="paint10_linear_543_947" x1="-52.9798" y1="41.2931" x2="439.03" y2="398.759" gradientUnits="userSpaceOnUse">
<stop/>
<stop offset="1" stop-color="white" stop-opacity="0"/>
</linearGradient>
<linearGradient id="paint11_linear_543_947" x1="-39.9739" y1="31.3461" x2="426.028" y2="408.707" gradientUnits="userSpaceOnUse">
<stop/>
<stop offset="1" stop-color="white" stop-opacity="0"/>
</linearGradient>
<linearGradient id="paint12_linear_543_947" x1="-26.6132" y1="22.2624" x2="412.665" y2="417.79" gradientUnits="userSpaceOnUse">
<stop/>
<stop offset="1" stop-color="white" stop-opacity="0"/>
</linearGradient>
<linearGradient id="paint13_linear_543_947" x1="-12.9464" y1="14.0524" x2="399.001" y2="425.999" gradientUnits="userSpaceOnUse">
<stop/>
<stop offset="1" stop-color="white" stop-opacity="0"/>
</linearGradient>
<linearGradient id="paint14_linear_543_947" x1="0.967216" y1="6.7232" x2="385.085" y2="433.33" gradientUnits="userSpaceOnUse">
<stop/>
<stop offset="1" stop-color="white" stop-opacity="0"/>
</linearGradient>
<linearGradient id="paint15_linear_543_947" x1="15.0758" y1="0.2761" x2="370.975" y2="439.775" gradientUnits="userSpaceOnUse">
<stop/>
<stop offset="1" stop-color="white" stop-opacity="0"/>
</linearGradient>
<linearGradient id="paint16_linear_543_947" x1="29.3266" y1="-5.28685" x2="356.726" y2="445.339" gradientUnits="userSpaceOnUse">
<stop/>
<stop offset="1" stop-color="white" stop-opacity="0"/>
</linearGradient>
<linearGradient id="paint17_linear_543_947" x1="43.6644" y1="-9.97041" x2="342.387" y2="450.023" gradientUnits="userSpaceOnUse">
<stop/>
<stop offset="1" stop-color="white" stop-opacity="0"/>
</linearGradient>
<linearGradient id="paint18_linear_543_947" x1="58.039" y1="-13.7807" x2="328.016" y2="453.832" gradientUnits="userSpaceOnUse">
<stop/>
<stop offset="1" stop-color="white" stop-opacity="0"/>
</linearGradient>
<linearGradient id="paint19_linear_543_947" x1="72.3933" y1="-16.7348" x2="313.656" y2="456.771" gradientUnits="userSpaceOnUse">
<stop/>
<stop offset="1" stop-color="white" stop-opacity="0"/>
</linearGradient>
<linearGradient id="paint20_linear_543_947" x1="86.6833" y1="-18.8294" x2="299.367" y2="458.865" gradientUnits="userSpaceOnUse">
<stop/>
<stop offset="1" stop-color="white" stop-opacity="0"/>
</linearGradient>
<linearGradient id="paint21_linear_543_947" x1="100.856" y1="-20.0875" x2="285.192" y2="460.124" gradientUnits="userSpaceOnUse">
<stop/>
<stop offset="1" stop-color="white" stop-opacity="0"/>
</linearGradient>
<linearGradient id="paint22_linear_543_947" x1="114.867" y1="-20.5285" x2="271.183" y2="460.564" gradientUnits="userSpaceOnUse">
<stop/>
<stop offset="1" stop-color="white" stop-opacity="0"/>
</linearGradient>
<linearGradient id="paint23_linear_543_947" x1="128.666" y1="-20.1714" x2="257.383" y2="460.208" gradientUnits="userSpaceOnUse">
<stop/>
<stop offset="1" stop-color="white" stop-opacity="0"/>
</linearGradient>
<linearGradient id="paint24_linear_543_947" x1="142.211" y1="-19.0408" x2="243.839" y2="459.077" gradientUnits="userSpaceOnUse">
<stop/>
<stop offset="1" stop-color="white" stop-opacity="0"/>
</linearGradient>
<linearGradient id="paint25_linear_543_947" x1="155.462" y1="-17.1625" x2="230.593" y2="457.199" gradientUnits="userSpaceOnUse">
<stop/>
<stop offset="1" stop-color="white" stop-opacity="0"/>
</linearGradient>
<linearGradient id="paint26_linear_543_947" x1="168.369" y1="-14.5638" x2="217.68" y2="454.6" gradientUnits="userSpaceOnUse">
<stop/>
<stop offset="1" stop-color="white" stop-opacity="0"/>
</linearGradient>
<linearGradient id="paint27_linear_543_947" x1="180.905" y1="-11.2756" x2="205.149" y2="451.312" gradientUnits="userSpaceOnUse">
<stop/>
<stop offset="1" stop-color="white" stop-opacity="0"/>
</linearGradient>
<linearGradient id="paint28_linear_543_947" x1="193.026" y1="-7.33044" x2="193.026" y2="447.367" gradientUnits="userSpaceOnUse">
<stop/>
<stop offset="1" stop-color="white" stop-opacity="0"/>
</linearGradient>
</defs>
</svg>
